<svg width="1067" height="435" viewBox="0 0 1067 435" fill="none" xmlns="http://www.w3.org/2000/svg">
<rect width="1067" height="435" rx="50" fill="#C4C4C4" fill-opacity="0.15"/>
<rect x="19" y="17" width="1031" height="400" rx="50" fill="#17C2EC"/>
<path d="M290.26 172.2C292.436 172.2 294.148 172.72 295.396 173.76C296.644 174.8 297.268 176.232 297.268 178.056C297.268 179.88 296.644 181.312 295.396 182.352C294.148 183.392 292.436 183.912 290.26 183.912H286.108V189H283.708V172.2H290.26ZM290.188 181.824C291.708 181.824 292.868 181.504 293.668 180.864C294.468 180.208 294.868 179.272 294.868 178.056C294.868 176.84 294.468 175.912 293.668 175.272C292.868 174.616 291.708 174.288 290.188 174.288H286.108V181.824H290.188ZM300.692 171.192H302.996V189H300.692V171.192ZM318.891 182.712C318.891 182.888 318.875 183.12 318.843 183.408H308.523C308.667 184.528 309.155 185.432 309.987 186.12C310.835 186.792 311.883 187.128 313.131 187.128C314.651 187.128 315.875 186.616 316.803 185.592L318.075 187.08C317.499 187.752 316.779 188.264 315.915 188.616C315.067 188.968 314.115 189.144 313.059 189.144C311.715 189.144 310.523 188.872 309.483 188.328C308.443 187.768 307.635 186.992 307.059 186C306.499 185.008 306.219 183.888 306.219 182.64C306.219 181.408 306.491 180.296 307.035 179.304C307.595 178.312 308.355 177.544 309.315 177C310.291 176.44 311.387 176.16 312.603 176.16C313.819 176.16 314.899 176.44 315.843 177C316.803 177.544 317.547 178.312 318.075 179.304C318.619 180.296 318.891 181.432 318.891 182.712ZM312.603 178.104C311.499 178.104 310.571 178.44 309.819 179.112C309.083 179.784 308.651 180.664 308.523 181.752H316.683C316.555 180.68 316.115 179.808 315.363 179.136C314.627 178.448 313.707 178.104 312.603 178.104ZM326.371 176.16C328.131 176.16 329.475 176.592 330.403 177.456C331.347 178.32 331.819 179.608 331.819 181.32V189H329.635V187.32C329.251 187.912 328.699 188.368 327.979 188.688C327.275 188.992 326.435 189.144 325.459 189.144C324.035 189.144 322.891 188.8 322.027 188.112C321.179 187.424 320.755 186.52 320.755 185.4C320.755 184.28 321.163 183.384 321.979 182.712C322.795 182.024 324.091 181.68 325.867 181.68H329.515V181.224C329.515 180.232 329.227 179.472 328.651 178.944C328.075 178.416 327.227 178.152 326.107 178.152C325.355 178.152 324.619 178.28 323.899 178.536C323.179 178.776 322.571 179.104 322.075 179.52L321.115 177.792C321.771 177.264 322.555 176.864 323.467 176.592C324.379 176.304 325.347 176.16 326.371 176.16ZM325.843 187.368C326.723 187.368 327.483 187.176 328.123 186.792C328.763 186.392 329.227 185.832 329.515 185.112V183.336H325.963C324.011 183.336 323.035 183.992 323.035 185.304C323.035 185.944 323.283 186.448 323.779 186.816C324.275 187.184 324.963 187.368 325.843 187.368ZM339.73 189.144C338.69 189.144 337.69 189.008 336.73 188.736C335.77 188.448 335.018 188.088 334.474 187.656L335.434 185.832C335.994 186.232 336.674 186.552 337.474 186.792C338.274 187.032 339.082 187.152 339.898 187.152C341.914 187.152 342.922 186.576 342.922 185.424C342.922 185.04 342.786 184.736 342.514 184.512C342.242 184.288 341.898 184.128 341.482 184.032C341.082 183.92 340.506 183.8 339.754 183.672C338.73 183.512 337.89 183.328 337.234 183.12C336.594 182.912 336.042 182.56 335.578 182.064C335.114 181.568 334.882 180.872 334.882 179.976C334.882 178.824 335.362 177.904 336.322 177.216C337.282 176.512 338.57 176.16 340.186 176.16C341.034 176.16 341.882 176.264 342.73 176.472C343.578 176.68 344.274 176.96 344.818 177.312L343.834 179.136C342.794 178.464 341.57 178.128 340.162 178.128C339.186 178.128 338.442 178.288 337.93 178.608C337.418 178.928 337.162 179.352 337.162 179.88C337.162 180.296 337.306 180.624 337.594 180.864C337.882 181.104 338.234 181.28 338.65 181.392C339.082 181.504 339.682 181.632 340.45 181.776C341.474 181.952 342.298 182.144 342.922 182.352C343.562 182.544 344.106 182.88 344.554 183.36C345.002 183.84 345.226 184.512 345.226 185.376C345.226 186.528 344.73 187.448 343.738 188.136C342.762 188.808 341.426 189.144 339.73 189.144ZM359.602 182.712C359.602 182.888 359.586 183.12 359.554 183.408H349.234C349.378 184.528 349.866 185.432 350.698 186.12C351.546 186.792 352.594 187.128 353.842 187.128C355.362 187.128 356.586 186.616 357.514 185.592L358.786 187.08C358.21 187.752 357.49 188.264 356.626 188.616C355.778 188.968 354.826 189.144 353.77 189.144C352.426 189.144 351.234 188.872 350.194 188.328C349.154 187.768 348.346 186.992 347.77 186C347.21 185.008 346.93 183.888 346.93 182.64C346.93 181.408 347.202 180.296 347.746 179.304C348.306 178.312 349.066 177.544 350.026 177C351.002 176.44 352.098 176.16 353.314 176.16C354.53 176.16 355.61 176.44 356.554 177C357.514 177.544 358.258 178.312 358.786 179.304C359.33 180.296 359.602 181.432 359.602 182.712ZM353.314 178.104C352.21 178.104 351.282 178.44 350.53 179.112C349.794 179.784 349.362 180.664 349.234 181.752H357.394C357.266 180.68 356.826 179.808 356.074 179.136C355.338 178.448 354.418 178.104 353.314 178.104ZM381.247 171.192V189H379.039V186.984C378.527 187.688 377.879 188.224 377.095 188.592C376.311 188.96 375.447 189.144 374.503 189.144C373.271 189.144 372.167 188.872 371.191 188.328C370.215 187.784 369.447 187.024 368.887 186.048C368.343 185.056 368.071 183.92 368.071 182.64C368.071 181.36 368.343 180.232 368.887 179.256C369.447 178.28 370.215 177.52 371.191 176.976C372.167 176.432 373.271 176.16 374.503 176.16C375.415 176.16 376.255 176.336 377.023 176.688C377.791 177.024 378.431 177.528 378.943 178.2V171.192H381.247ZM374.695 187.128C375.495 187.128 376.223 186.944 376.879 186.576C377.535 186.192 378.047 185.664 378.415 184.992C378.783 184.304 378.967 183.52 378.967 182.64C378.967 181.76 378.783 180.984 378.415 180.312C378.047 179.624 377.535 179.096 376.879 178.728C376.223 178.36 375.495 178.176 374.695 178.176C373.879 178.176 373.143 178.36 372.487 178.728C371.847 179.096 371.335 179.624 370.951 180.312C370.583 180.984 370.399 181.76 370.399 182.64C370.399 183.52 370.583 184.304 370.951 184.992C371.335 185.664 371.847 186.192 372.487 186.576C373.143 186.944 373.879 187.128 374.695 187.128ZM391.054 189.144C389.79 189.144 388.654 188.864 387.646 188.304C386.638 187.744 385.846 186.976 385.27 186C384.71 185.008 384.43 183.888 384.43 182.64C384.43 181.392 384.71 180.28 385.27 179.304C385.846 178.312 386.638 177.544 387.646 177C388.654 176.44 389.79 176.16 391.054 176.16C392.318 176.16 393.446 176.44 394.438 177C395.446 177.544 396.23 178.312 396.79 179.304C397.366 180.28 397.654 181.392 397.654 182.64C397.654 183.888 397.366 185.008 396.79 186C396.23 186.976 395.446 187.744 394.438 188.304C393.446 188.864 392.318 189.144 391.054 189.144ZM391.054 187.128C391.87 187.128 392.598 186.944 393.238 186.576C393.894 186.192 394.406 185.664 394.774 184.992C395.142 184.304 395.326 183.52 395.326 182.64C395.326 181.76 395.142 180.984 394.774 180.312C394.406 179.624 393.894 179.096 393.238 178.728C392.598 178.36 391.87 178.176 391.054 178.176C390.238 178.176 389.502 178.36 388.846 178.728C388.206 179.096 387.694 179.624 387.31 180.312C386.942 180.984 386.758 181.76 386.758 182.64C386.758 183.52 386.942 184.304 387.31 184.992C387.694 185.664 388.206 186.192 388.846 186.576C389.502 186.944 390.238 187.128 391.054 187.128ZM418.782 182.712C418.782 182.888 418.766 183.12 418.734 183.408H408.414C408.558 184.528 409.046 185.432 409.878 186.12C410.726 186.792 411.774 187.128 413.022 187.128C414.542 187.128 415.766 186.616 416.694 185.592L417.966 187.08C417.39 187.752 416.67 188.264 415.806 188.616C414.958 188.968 414.006 189.144 412.95 189.144C411.606 189.144 410.414 188.872 409.374 188.328C408.334 187.768 407.526 186.992 406.95 186C406.39 185.008 406.11 183.888 406.11 182.64C406.11 181.408 406.382 180.296 406.926 179.304C407.486 178.312 408.246 177.544 409.206 177C410.182 176.44 411.278 176.16 412.494 176.16C413.71 176.16 414.79 176.44 415.734 177C416.694 177.544 417.438 178.312 417.966 179.304C418.51 180.296 418.782 181.432 418.782 182.712ZM412.494 178.104C411.39 178.104 410.462 178.44 409.71 179.112C408.974 179.784 408.542 180.664 408.414 181.752H416.574C416.446 180.68 416.006 179.808 415.254 179.136C414.518 178.448 413.598 178.104 412.494 178.104ZM428.773 176.16C430.389 176.16 431.669 176.632 432.613 177.576C433.573 178.504 434.053 179.872 434.053 181.68V189H431.749V181.944C431.749 180.712 431.453 179.784 430.861 179.16C430.269 178.536 429.421 178.224 428.317 178.224C427.069 178.224 426.085 178.592 425.365 179.328C424.645 180.048 424.285 181.088 424.285 182.448V189H421.981V176.28H424.189V178.2C424.653 177.544 425.277 177.04 426.061 176.688C426.861 176.336 427.765 176.16 428.773 176.16ZM445.469 188.256C445.133 188.544 444.717 188.768 444.221 188.928C443.725 189.072 443.213 189.144 442.685 189.144C441.405 189.144 440.413 188.8 439.709 188.112C439.005 187.424 438.653 186.44 438.653 185.16V178.176H436.493V176.28H438.653V173.496H440.957V176.28H444.605V178.176H440.957V185.064C440.957 185.752 441.125 186.28 441.461 186.648C441.813 187.016 442.309 187.2 442.949 187.2C443.653 187.2 444.253 187 444.749 186.6L445.469 188.256ZM459.328 182.712C459.328 182.888 459.312 183.12 459.28 183.408H448.96C449.104 184.528 449.592 185.432 450.424 186.12C451.272 186.792 452.32 187.128 453.568 187.128C455.088 187.128 456.312 186.616 457.24 185.592L458.512 187.08C457.936 187.752 457.216 188.264 456.352 188.616C455.504 188.968 454.552 189.144 453.496 189.144C452.152 189.144 450.96 188.872 449.92 188.328C448.88 187.768 448.072 186.992 447.496 186C446.936 185.008 446.656 183.888 446.656 182.64C446.656 181.408 446.928 180.296 447.472 179.304C448.032 178.312 448.792 177.544 449.752 177C450.728 176.44 451.824 176.16 453.04 176.16C454.256 176.16 455.336 176.44 456.28 177C457.24 177.544 457.984 178.312 458.512 179.304C459.056 180.296 459.328 181.432 459.328 182.712ZM453.04 178.104C451.936 178.104 451.008 178.44 450.256 179.112C449.52 179.784 449.088 180.664 448.96 181.752H457.12C456.992 180.68 456.552 179.808 455.8 179.136C455.064 178.448 454.144 178.104 453.04 178.104ZM464.736 178.416C465.136 177.68 465.728 177.12 466.512 176.736C467.296 176.352 468.248 176.16 469.368 176.16V178.392C469.24 178.376 469.064 178.368 468.84 178.368C467.592 178.368 466.608 178.744 465.888 179.496C465.184 180.232 464.832 181.288 464.832 182.664V189H462.528V176.28H464.736V178.416ZM490.073 176.28L483.905 190.272C483.361 191.568 482.721 192.48 481.985 193.008C481.265 193.536 480.393 193.8 479.369 193.8C478.745 193.8 478.137 193.696 477.545 193.488C476.969 193.296 476.489 193.008 476.105 192.624L477.089 190.896C477.745 191.52 478.505 191.832 479.369 191.832C479.929 191.832 480.393 191.68 480.761 191.376C481.145 191.088 481.489 190.584 481.793 189.864L482.201 188.976L476.585 176.28H478.985L483.425 186.456L487.817 176.28H490.073ZM497.32 189.144C496.056 189.144 494.92 188.864 493.912 188.304C492.904 187.744 492.112 186.976 491.536 186C490.976 185.008 490.696 183.888 490.696 182.64C490.696 181.392 490.976 180.28 491.536 179.304C492.112 178.312 492.904 177.544 493.912 177C494.92 176.44 496.056 176.16 497.32 176.16C498.584 176.16 499.712 176.44 500.704 177C501.712 177.544 502.496 178.312 503.056 179.304C503.632 180.28 503.92 181.392 503.92 182.64C503.92 183.888 503.632 185.008 503.056 186C502.496 186.976 501.712 187.744 500.704 188.304C499.712 188.864 498.584 189.144 497.32 189.144ZM497.32 187.128C498.136 187.128 498.864 186.944 499.504 186.576C500.16 186.192 500.672 185.664 501.04 184.992C501.408 184.304 501.592 183.52 501.592 182.64C501.592 181.76 501.408 180.984 501.04 180.312C500.672 179.624 500.16 179.096 499.504 178.728C498.864 178.36 498.136 178.176 497.32 178.176C496.504 178.176 495.768 178.36 495.112 178.728C494.472 179.096 493.96 179.624 493.576 180.312C493.208 180.984 493.024 181.76 493.024 182.64C493.024 183.52 493.208 184.304 493.576 184.992C493.96 185.664 494.472 186.192 495.112 186.576C495.768 186.944 496.504 187.128 497.32 187.128ZM518.962 176.28V189H516.778V187.08C516.314 187.736 515.698 188.248 514.93 188.616C514.178 188.968 513.354 189.144 512.458 189.144C510.762 189.144 509.426 188.68 508.45 187.752C507.474 186.808 506.986 185.424 506.986 183.6V176.28H509.29V183.336C509.29 184.568 509.586 185.504 510.178 186.144C510.77 186.768 511.618 187.08 512.722 187.08C513.938 187.08 514.898 186.712 515.602 185.976C516.306 185.24 516.658 184.2 516.658 182.856V176.28H518.962ZM525.556 178.416C525.956 177.68 526.548 177.12 527.332 176.736C528.116 176.352 529.068 176.16 530.188 176.16V178.392C530.06 178.376 529.884 178.368 529.66 178.368C528.412 178.368 527.428 178.744 526.708 179.496C526.004 180.232 525.652 181.288 525.652 182.664V189H523.348V176.28H525.556V178.416ZM551.133 182.712C551.133 182.888 551.117 183.12 551.085 183.408H540.765C540.909 184.528 541.397 185.432 542.229 186.12C543.077 186.792 544.125 187.128 545.373 187.128C546.893 187.128 548.117 186.616 549.045 185.592L550.317 187.08C549.741 187.752 549.021 188.264 548.157 188.616C547.309 188.968 546.357 189.144 545.301 189.144C543.957 189.144 542.765 188.872 541.725 188.328C540.685 187.768 539.877 186.992 539.301 186C538.741 185.008 538.461 183.888 538.461 182.64C538.461 181.408 538.733 180.296 539.277 179.304C539.837 178.312 540.597 177.544 541.557 177C542.533 176.44 543.629 176.16 544.845 176.16C546.061 176.16 547.141 176.44 548.085 177C549.045 177.544 549.789 178.312 550.317 179.304C550.861 180.296 551.133 181.432 551.133 182.712ZM544.845 178.104C543.741 178.104 542.813 178.44 542.061 179.112C541.325 179.784 540.893 180.664 540.765 181.752H548.925C548.797 180.68 548.357 179.808 547.605 179.136C546.869 178.448 545.949 178.104 544.845 178.104ZM570.244 176.16C571.844 176.16 573.108 176.624 574.036 177.552C574.98 178.48 575.452 179.856 575.452 181.68V189H573.148V181.944C573.148 180.712 572.86 179.784 572.284 179.16C571.724 178.536 570.916 178.224 569.86 178.224C568.692 178.224 567.764 178.592 567.076 179.328C566.388 180.048 566.044 181.088 566.044 182.448V189H563.74V181.944C563.74 180.712 563.452 179.784 562.876 179.16C562.316 178.536 561.508 178.224 560.452 178.224C559.284 178.224 558.356 178.592 557.668 179.328C556.98 180.048 556.636 181.088 556.636 182.448V189H554.332V176.28H556.54V178.176C557.004 177.52 557.612 177.024 558.364 176.688C559.116 176.336 559.972 176.16 560.932 176.16C561.924 176.16 562.804 176.36 563.572 176.76C564.34 177.16 564.932 177.744 565.348 178.512C565.828 177.776 566.492 177.2 567.34 176.784C568.204 176.368 569.172 176.16 570.244 176.16ZM584.324 176.16C586.084 176.16 587.428 176.592 588.356 177.456C589.3 178.32 589.772 179.608 589.772 181.32V189H587.588V187.32C587.204 187.912 586.652 188.368 585.932 188.688C585.228 188.992 584.388 189.144 583.412 189.144C581.988 189.144 580.844 188.8 579.98 188.112C579.132 187.424 578.708 186.52 578.708 185.4C578.708 184.28 579.116 183.384 579.932 182.712C580.748 182.024 582.044 181.68 583.82 181.68H587.468V181.224C587.468 180.232 587.18 179.472 586.604 178.944C586.028 178.416 585.18 178.152 584.06 178.152C583.308 178.152 582.572 178.28 581.852 178.536C581.132 178.776 580.524 179.104 580.028 179.52L579.068 177.792C579.724 177.264 580.508 176.864 581.42 176.592C582.332 176.304 583.3 176.16 584.324 176.16ZM583.796 187.368C584.676 187.368 585.436 187.176 586.076 186.792C586.716 186.392 587.18 185.832 587.468 185.112V183.336H583.916C581.964 183.336 580.988 183.992 580.988 185.304C580.988 185.944 581.236 186.448 581.732 186.816C582.228 187.184 582.916 187.368 583.796 187.368ZM594.036 176.28H596.34V189H594.036V176.28ZM595.188 173.832C594.74 173.832 594.364 173.688 594.06 173.4C593.772 173.112 593.628 172.76 593.628 172.344C593.628 171.928 593.772 171.576 594.06 171.288C594.364 170.984 594.74 170.832 595.188 170.832C595.636 170.832 596.004 170.976 596.292 171.264C596.596 171.536 596.748 171.88 596.748 172.296C596.748 172.728 596.596 173.096 596.292 173.4C596.004 173.688 595.636 173.832 595.188 173.832ZM600.739 171.192H603.043V189H600.739V171.192ZM618.519 176.16C620.279 176.16 621.623 176.592 622.551 177.456C623.495 178.32 623.967 179.608 623.967 181.32V189H621.783V187.32C621.399 187.912 620.847 188.368 620.127 188.688C619.423 188.992 618.583 189.144 617.607 189.144C616.183 189.144 615.039 188.8 614.175 188.112C613.327 187.424 612.903 186.52 612.903 185.4C612.903 184.28 613.311 183.384 614.127 182.712C614.943 182.024 616.239 181.68 618.015 181.68H621.663V181.224C621.663 180.232 621.375 179.472 620.799 178.944C620.223 178.416 619.375 178.152 618.255 178.152C617.503 178.152 616.767 178.28 616.047 178.536C615.327 178.776 614.719 179.104 614.223 179.52L613.263 177.792C613.919 177.264 614.703 176.864 615.615 176.592C616.527 176.304 617.495 176.16 618.519 176.16ZM617.991 187.368C618.871 187.368 619.631 187.176 620.271 186.792C620.911 186.392 621.375 185.832 621.663 185.112V183.336H618.111C616.159 183.336 615.183 183.992 615.183 185.304C615.183 185.944 615.431 186.448 615.927 186.816C616.423 187.184 617.111 187.368 617.991 187.368ZM640.301 171.192V189H638.093V186.984C637.581 187.688 636.933 188.224 636.149 188.592C635.365 188.96 634.501 189.144 633.557 189.144C632.325 189.144 631.221 188.872 630.245 188.328C629.269 187.784 628.501 187.024 627.941 186.048C627.397 185.056 627.125 183.92 627.125 182.64C627.125 181.36 627.397 180.232 627.941 179.256C628.501 178.28 629.269 177.52 630.245 176.976C631.221 176.432 632.325 176.16 633.557 176.16C634.469 176.16 635.309 176.336 636.077 176.688C636.845 177.024 637.485 177.528 637.997 178.2V171.192H640.301ZM633.749 187.128C634.549 187.128 635.277 186.944 635.933 186.576C636.589 186.192 637.101 185.664 637.469 184.992C637.837 184.304 638.021 183.52 638.021 182.64C638.021 181.76 637.837 180.984 637.469 180.312C637.101 179.624 636.589 179.096 635.933 178.728C635.277 178.36 634.549 178.176 633.749 178.176C632.933 178.176 632.197 178.36 631.541 178.728C630.901 179.096 630.389 179.624 630.005 180.312C629.637 180.984 629.453 181.76 629.453 182.64C629.453 183.52 629.637 184.304 630.005 184.992C630.389 185.664 630.901 186.192 631.541 186.576C632.197 186.944 632.933 187.128 633.749 187.128ZM656.661 171.192V189H654.453V186.984C653.941 187.688 653.293 188.224 652.509 188.592C651.725 188.96 650.861 189.144 649.917 189.144C648.685 189.144 647.581 188.872 646.605 188.328C645.629 187.784 644.861 187.024 644.301 186.048C643.757 185.056 643.485 183.92 643.485 182.64C643.485 181.36 643.757 180.232 644.301 179.256C644.861 178.28 645.629 177.52 646.605 176.976C647.581 176.432 648.685 176.16 649.917 176.16C650.829 176.16 651.669 176.336 652.437 176.688C653.205 177.024 653.845 177.528 654.357 178.2V171.192H656.661ZM650.109 187.128C650.909 187.128 651.637 186.944 652.293 186.576C652.949 186.192 653.461 185.664 653.829 184.992C654.197 184.304 654.381 183.52 654.381 182.64C654.381 181.76 654.197 180.984 653.829 180.312C653.461 179.624 652.949 179.096 652.293 178.728C651.637 178.36 650.909 178.176 650.109 178.176C649.293 178.176 648.557 178.36 647.901 178.728C647.261 179.096 646.749 179.624 646.365 180.312C645.997 180.984 645.813 181.76 645.813 182.64C645.813 183.52 645.997 184.304 646.365 184.992C646.749 185.664 647.261 186.192 647.901 186.576C648.557 186.944 649.293 187.128 650.109 187.128ZM663.228 178.416C663.628 177.68 664.22 177.12 665.004 176.736C665.788 176.352 666.74 176.16 667.86 176.16V178.392C667.732 178.376 667.556 178.368 667.332 178.368C666.084 178.368 665.1 178.744 664.38 179.496C663.676 180.232 663.324 181.288 663.324 182.664V189H661.02V176.28H663.228V178.416ZM682.078 182.712C682.078 182.888 682.062 183.12 682.03 183.408H671.71C671.854 184.528 672.342 185.432 673.174 186.12C674.022 186.792 675.07 187.128 676.318 187.128C677.838 187.128 679.062 186.616 679.99 185.592L681.262 187.08C680.686 187.752 679.966 188.264 679.102 188.616C678.254 188.968 677.302 189.144 676.246 189.144C674.902 189.144 673.71 188.872 672.67 188.328C671.63 187.768 670.822 186.992 670.246 186C669.686 185.008 669.406 183.888 669.406 182.64C669.406 181.408 669.678 180.296 670.222 179.304C670.782 178.312 671.542 177.544 672.502 177C673.478 176.44 674.574 176.16 675.79 176.16C677.006 176.16 678.086 176.44 679.03 177C679.99 177.544 680.734 178.312 681.262 179.304C681.806 180.296 682.078 181.432 682.078 182.712ZM675.79 178.104C674.686 178.104 673.758 178.44 673.006 179.112C672.27 179.784 671.838 180.664 671.71 181.752H679.87C679.742 180.68 679.302 179.808 678.55 179.136C677.814 178.448 676.894 178.104 675.79 178.104ZM688.926 189.144C687.886 189.144 686.886 189.008 685.926 188.736C684.966 188.448 684.214 188.088 683.67 187.656L684.63 185.832C685.19 186.232 685.87 186.552 686.67 186.792C687.47 187.032 688.278 187.152 689.094 187.152C691.11 187.152 692.118 186.576 692.118 185.424C692.118 185.04 691.982 184.736 691.71 184.512C691.438 184.288 691.094 184.128 690.678 184.032C690.278 183.92 689.702 183.8 688.95 183.672C687.926 183.512 687.086 183.328 686.43 183.12C685.79 182.912 685.238 182.56 684.774 182.064C684.31 181.568 684.078 180.872 684.078 179.976C684.078 178.824 684.558 177.904 685.518 177.216C686.478 176.512 687.766 176.16 689.382 176.16C690.23 176.16 691.078 176.264 691.926 176.472C692.774 176.68 693.47 176.96 694.014 177.312L693.03 179.136C691.99 178.464 690.766 178.128 689.358 178.128C688.382 178.128 687.638 178.288 687.126 178.608C686.614 178.928 686.358 179.352 686.358 179.88C686.358 180.296 686.502 180.624 686.79 180.864C687.078 181.104 687.43 181.28 687.846 181.392C688.278 181.504 688.878 181.632 689.646 181.776C690.67 181.952 691.494 182.144 692.118 182.352C692.758 182.544 693.302 182.88 693.75 183.36C694.198 183.84 694.422 184.512 694.422 185.376C694.422 186.528 693.926 187.448 692.934 188.136C691.958 188.808 690.622 189.144 688.926 189.144ZM700.949 189.144C699.909 189.144 698.909 189.008 697.949 188.736C696.989 188.448 696.237 188.088 695.693 187.656L696.653 185.832C697.213 186.232 697.893 186.552 698.693 186.792C699.493 187.032 700.301 187.152 701.117 187.152C703.133 187.152 704.141 186.576 704.141 185.424C704.141 185.04 704.005 184.736 703.733 184.512C703.461 184.288 703.117 184.128 702.701 184.032C702.301 183.92 701.725 183.8 700.973 183.672C699.949 183.512 699.109 183.328 698.453 183.12C697.813 182.912 697.261 182.56 696.797 182.064C696.333 181.568 696.101 180.872 696.101 179.976C696.101 178.824 696.581 177.904 697.541 177.216C698.501 176.512 699.789 176.16 701.405 176.16C702.253 176.16 703.101 176.264 703.949 176.472C704.797 176.68 705.493 176.96 706.037 177.312L705.053 179.136C704.013 178.464 702.789 178.128 701.381 178.128C700.405 178.128 699.661 178.288 699.149 178.608C698.637 178.928 698.381 179.352 698.381 179.88C698.381 180.296 698.525 180.624 698.813 180.864C699.101 181.104 699.453 181.28 699.869 181.392C700.301 181.504 700.901 181.632 701.669 181.776C702.693 181.952 703.517 182.144 704.141 182.352C704.781 182.544 705.325 182.88 705.773 183.36C706.221 183.84 706.445 184.512 706.445 185.376C706.445 186.528 705.949 187.448 704.957 188.136C703.981 188.808 702.645 189.144 700.949 189.144ZM722.514 176.16C723.746 176.16 724.85 176.432 725.826 176.976C726.802 177.52 727.562 178.28 728.106 179.256C728.666 180.232 728.946 181.36 728.946 182.64C728.946 183.92 728.666 185.056 728.106 186.048C727.562 187.024 726.802 187.784 725.826 188.328C724.85 188.872 723.746 189.144 722.514 189.144C721.57 189.144 720.706 188.96 719.922 188.592C719.138 188.224 718.49 187.688 717.978 186.984V189H715.77V171.192H718.074V178.2C718.586 177.528 719.226 177.024 719.994 176.688C720.762 176.336 721.602 176.16 722.514 176.16ZM722.322 187.128C723.138 187.128 723.866 186.944 724.506 186.576C725.162 186.192 725.674 185.664 726.042 184.992C726.426 184.304 726.618 183.52 726.618 182.64C726.618 181.76 726.426 180.984 726.042 180.312C725.674 179.624 725.162 179.096 724.506 178.728C723.866 178.36 723.138 178.176 722.322 178.176C721.522 178.176 720.794 178.36 720.138 178.728C719.482 179.096 718.97 179.624 718.602 180.312C718.234 180.984 718.05 181.76 718.05 182.64C718.05 183.52 718.234 184.304 718.602 184.992C718.97 185.664 719.482 186.192 720.138 186.576C720.794 186.944 721.522 187.128 722.322 187.128ZM743.625 182.712C743.625 182.888 743.609 183.12 743.577 183.408H733.257C733.401 184.528 733.889 185.432 734.721 186.12C735.569 186.792 736.617 187.128 737.865 187.128C739.385 187.128 740.609 186.616 741.537 185.592L742.809 187.08C742.233 187.752 741.513 188.264 740.649 188.616C739.801 188.968 738.849 189.144 737.793 189.144C736.449 189.144 735.257 188.872 734.217 188.328C733.177 187.768 732.369 186.992 731.793 186C731.233 185.008 730.953 183.888 730.953 182.64C730.953 181.408 731.225 180.296 731.769 179.304C732.329 178.312 733.089 177.544 734.049 177C735.025 176.44 736.121 176.16 737.337 176.16C738.553 176.16 739.633 176.44 740.577 177C741.537 177.544 742.281 178.312 742.809 179.304C743.353 180.296 743.625 181.432 743.625 182.712ZM737.337 178.104C736.233 178.104 735.305 178.44 734.553 179.112C733.817 179.784 733.385 180.664 733.257 181.752H741.417C741.289 180.68 740.849 179.808 740.097 179.136C739.361 178.448 738.441 178.104 737.337 178.104ZM746.825 171.192H749.129V189H746.825V171.192ZM758.976 189.144C757.712 189.144 756.576 188.864 755.568 188.304C754.56 187.744 753.768 186.976 753.192 186C752.632 185.008 752.352 183.888 752.352 182.64C752.352 181.392 752.632 180.28 753.192 179.304C753.768 178.312 754.56 177.544 755.568 177C756.576 176.44 757.712 176.16 758.976 176.16C760.24 176.16 761.368 176.44 762.36 177C763.368 177.544 764.152 178.312 764.712 179.304C765.288 180.28 765.576 181.392 765.576 182.64C765.576 183.888 765.288 185.008 764.712 186C764.152 186.976 763.368 187.744 762.36 188.304C761.368 188.864 760.24 189.144 758.976 189.144ZM758.976 187.128C759.792 187.128 760.52 186.944 761.16 186.576C761.816 186.192 762.328 185.664 762.696 184.992C763.064 184.304 763.248 183.52 763.248 182.64C763.248 181.76 763.064 180.984 762.696 180.312C762.328 179.624 761.816 179.096 761.16 178.728C760.52 178.36 759.792 178.176 758.976 178.176C758.16 178.176 757.424 178.36 756.768 178.728C756.128 179.096 755.616 179.624 755.232 180.312C754.864 180.984 754.68 181.76 754.68 182.64C754.68 183.52 754.864 184.304 755.232 184.992C755.616 185.664 756.128 186.192 756.768 186.576C757.424 186.944 758.16 187.128 758.976 187.128ZM787.659 176.28L782.907 189H780.699L777.027 179.352L773.307 189H771.099L766.371 176.28H768.555L772.251 186.408L776.091 176.28H778.035L781.803 186.456L785.595 176.28H787.659Z" fill="white"/>
<path d="M414.751 116.672H421.855V130.304C420.031 131.68 417.919 132.736 415.519 133.472C413.119 134.208 410.703 134.576 408.271 134.576C404.783 134.576 401.647 133.84 398.863 132.368C396.079 130.864 393.887 128.8 392.287 126.176C390.719 123.52 389.935 120.528 389.935 117.2C389.935 113.872 390.719 110.896 392.287 108.272C393.887 105.616 396.095 103.552 398.911 102.08C401.727 100.576 404.895 99.824 408.415 99.824C411.359 99.824 414.031 100.32 416.431 101.312C418.831 102.304 420.847 103.744 422.479 105.632L417.487 110.24C415.087 107.712 412.191 106.448 408.799 106.448C406.655 106.448 404.751 106.896 403.087 107.792C401.423 108.688 400.127 109.952 399.199 111.584C398.271 113.216 397.807 115.088 397.807 117.2C397.807 119.28 398.271 121.136 399.199 122.768C400.127 124.4 401.407 125.68 403.039 126.608C404.703 127.504 406.591 127.952 408.703 127.952C410.943 127.952 412.959 127.472 414.751 126.512V116.672ZM453.846 121.184C453.846 121.28 453.798 121.952 453.702 123.2H434.166C434.518 124.8 435.35 126.064 436.662 126.992C437.974 127.92 439.606 128.384 441.558 128.384C442.902 128.384 444.086 128.192 445.11 127.808C446.166 127.392 447.142 126.752 448.038 125.888L452.022 130.208C449.59 132.992 446.038 134.384 441.366 134.384C438.454 134.384 435.878 133.824 433.638 132.704C431.398 131.552 429.67 129.968 428.454 127.952C427.238 125.936 426.63 123.648 426.63 121.088C426.63 118.56 427.222 116.288 428.406 114.272C429.622 112.224 431.27 110.64 433.35 109.52C435.462 108.368 437.814 107.792 440.406 107.792C442.934 107.792 445.222 108.336 447.27 109.424C449.318 110.512 450.918 112.08 452.07 114.128C453.254 116.144 453.846 118.496 453.846 121.184ZM440.454 113.456C438.758 113.456 437.334 113.936 436.182 114.896C435.03 115.856 434.326 117.168 434.07 118.832H446.79C446.534 117.2 445.83 115.904 444.678 114.944C443.526 113.952 442.118 113.456 440.454 113.456ZM475.487 132.752C474.751 133.296 473.839 133.712 472.751 134C471.695 134.256 470.575 134.384 469.391 134.384C466.319 134.384 463.935 133.6 462.239 132.032C460.575 130.464 459.743 128.16 459.743 125.12V114.512H455.759V108.752H459.743V102.464H467.231V108.752H473.663V114.512H467.231V125.024C467.231 126.112 467.503 126.96 468.047 127.568C468.623 128.144 469.423 128.432 470.447 128.432C471.631 128.432 472.639 128.112 473.471 127.472L475.487 132.752ZM503.7 107.792C507.7 107.792 510.772 108.752 512.916 110.672C515.06 112.56 516.132 115.424 516.132 119.264V134H509.124V130.784C507.716 133.184 505.092 134.384 501.252 134.384C499.268 134.384 497.54 134.048 496.068 133.376C494.628 132.704 493.524 131.776 492.756 130.592C491.988 129.408 491.604 128.064 491.604 126.56C491.604 124.16 492.5 122.272 494.292 120.896C496.116 119.52 498.916 118.832 502.692 118.832H508.644C508.644 117.2 508.148 115.952 507.156 115.088C506.164 114.192 504.676 113.744 502.692 113.744C501.316 113.744 499.956 113.968 498.612 114.416C497.3 114.832 496.18 115.408 495.252 116.144L492.564 110.912C493.972 109.92 495.652 109.152 497.604 108.608C499.588 108.064 501.62 107.792 503.7 107.792ZM503.124 129.344C504.404 129.344 505.54 129.056 506.532 128.48C507.524 127.872 508.228 126.992 508.644 125.84V123.2H503.508C500.436 123.2 498.9 124.208 498.9 126.224C498.9 127.184 499.268 127.952 500.004 128.528C500.772 129.072 501.812 129.344 503.124 129.344ZM562.711 108.176V143.312H555.223V131.264C553.367 133.344 550.791 134.384 547.495 134.384C545.063 134.384 542.855 133.84 540.871 132.752C538.919 131.664 537.383 130.112 536.263 128.096C535.143 126.08 534.583 123.744 534.583 121.088C534.583 118.432 535.143 116.096 536.263 114.08C537.383 112.064 538.919 110.512 540.871 109.424C542.855 108.336 545.063 107.792 547.495 107.792C551.015 107.792 553.703 108.912 555.559 111.152V108.176H562.711ZM548.791 128.24C550.679 128.24 552.247 127.6 553.495 126.32C554.743 125.008 555.367 123.264 555.367 121.088C555.367 118.912 554.743 117.184 553.495 115.904C552.247 114.592 550.679 113.936 548.791 113.936C546.871 113.936 545.287 114.592 544.039 115.904C542.791 117.184 542.167 118.912 542.167 121.088C542.167 123.264 542.791 125.008 544.039 126.32C545.287 127.6 546.871 128.24 548.791 128.24ZM595.66 108.176V134H588.556V130.928C587.564 132.048 586.38 132.912 585.004 133.52C583.628 134.096 582.14 134.384 580.54 134.384C577.148 134.384 574.46 133.408 572.476 131.456C570.492 129.504 569.5 126.608 569.5 122.768V108.176H576.988V121.664C576.988 125.824 578.732 127.904 582.22 127.904C584.012 127.904 585.452 127.328 586.54 126.176C587.628 124.992 588.172 123.248 588.172 120.944V108.176H595.66ZM614.885 134.384C612.165 134.384 609.717 133.824 607.541 132.704C605.397 131.552 603.717 129.968 602.501 127.952C601.285 125.936 600.677 123.648 600.677 121.088C600.677 118.528 601.285 116.24 602.501 114.224C603.717 112.208 605.397 110.64 607.541 109.52C609.717 108.368 612.165 107.792 614.885 107.792C617.605 107.792 620.037 108.368 622.181 109.52C624.325 110.64 626.005 112.208 627.221 114.224C628.437 116.24 629.045 118.528 629.045 121.088C629.045 123.648 628.437 125.936 627.221 127.952C626.005 129.968 624.325 131.552 622.181 132.704C620.037 133.824 617.605 134.384 614.885 134.384ZM614.885 128.24C616.805 128.24 618.373 127.6 619.589 126.32C620.837 125.008 621.461 123.264 621.461 121.088C621.461 118.912 620.837 117.184 619.589 115.904C618.373 114.592 616.805 113.936 614.885 113.936C612.965 113.936 611.381 114.592 610.133 115.904C608.885 117.184 608.261 118.912 608.261 121.088C608.261 123.264 608.885 125.008 610.133 126.32C611.381 127.6 612.965 128.24 614.885 128.24ZM650.706 132.752C649.97 133.296 649.058 133.712 647.97 134C646.914 134.256 645.794 134.384 644.61 134.384C641.538 134.384 639.154 133.6 637.458 132.032C635.794 130.464 634.962 128.16 634.962 125.12V114.512H630.978V108.752H634.962V102.464H642.45V108.752H648.882V114.512H642.45V125.024C642.45 126.112 642.722 126.96 643.266 127.568C643.842 128.144 644.642 128.432 645.666 128.432C646.85 128.432 647.858 128.112 648.69 127.472L650.706 132.752ZM679.408 121.184C679.408 121.28 679.36 121.952 679.264 123.2H659.728C660.08 124.8 660.912 126.064 662.224 126.992C663.536 127.92 665.168 128.384 667.12 128.384C668.464 128.384 669.648 128.192 670.672 127.808C671.728 127.392 672.704 126.752 673.6 125.888L677.584 130.208C675.152 132.992 671.6 134.384 666.928 134.384C664.016 134.384 661.44 133.824 659.2 132.704C656.96 131.552 655.232 129.968 654.016 127.952C652.8 125.936 652.192 123.648 652.192 121.088C652.192 118.56 652.784 116.288 653.968 114.272C655.184 112.224 656.832 110.64 658.912 109.52C661.024 108.368 663.376 107.792 665.968 107.792C668.496 107.792 670.784 108.336 672.832 109.424C674.88 110.512 676.48 112.08 677.632 114.128C678.816 116.144 679.408 118.496 679.408 121.184ZM666.016 113.456C664.32 113.456 662.896 113.936 661.744 114.896C660.592 115.856 659.888 117.168 659.632 118.832H672.352C672.096 117.2 671.392 115.904 670.24 114.944C669.088 113.952 667.68 113.456 666.016 113.456Z" fill="white"/>
<g filter="url(#filter0_d_10_323)">
<path d="M260 265C260 248.431 273.431 235 290 235H710V310H290C273.431 310 260 296.569 260 280V265Z" fill="white"/>
</g>
<path d="M302.234 267.66H304.154V282.5H302.234V267.66ZM317.4 277.26C317.4 277.407 317.387 277.6 317.36 277.84H308.76C308.88 278.773 309.287 279.527 309.98 280.1C310.687 280.66 311.56 280.94 312.6 280.94C313.867 280.94 314.887 280.513 315.66 279.66L316.72 280.9C316.24 281.46 315.64 281.887 314.92 282.18C314.213 282.473 313.42 282.62 312.54 282.62C311.42 282.62 310.427 282.393 309.56 281.94C308.693 281.473 308.02 280.827 307.54 280C307.073 279.173 306.84 278.24 306.84 277.2C306.84 276.173 307.067 275.247 307.52 274.42C307.987 273.593 308.62 272.953 309.42 272.5C310.233 272.033 311.147 271.8 312.16 271.8C313.173 271.8 314.073 272.033 314.86 272.5C315.66 272.953 316.28 273.593 316.72 274.42C317.173 275.247 317.4 276.193 317.4 277.26ZM312.16 273.42C311.24 273.42 310.467 273.7 309.84 274.26C309.227 274.82 308.867 275.553 308.76 276.46H315.56C315.453 275.567 315.087 274.84 314.46 274.28C313.847 273.707 313.08 273.42 312.16 273.42ZM325.726 271.8C327.073 271.8 328.139 272.193 328.926 272.98C329.726 273.753 330.126 274.893 330.126 276.4V282.5H328.206V276.62C328.206 275.593 327.959 274.82 327.466 274.3C326.973 273.78 326.266 273.52 325.346 273.52C324.306 273.52 323.486 273.827 322.886 274.44C322.286 275.04 321.986 275.907 321.986 277.04V282.5H320.066V271.9H321.906V273.5C322.293 272.953 322.813 272.533 323.466 272.24C324.133 271.947 324.886 271.8 325.726 271.8ZM343.559 271.9V282.5H341.739V280.9C341.353 281.447 340.839 281.873 340.199 282.18C339.573 282.473 338.886 282.62 338.139 282.62C336.726 282.62 335.613 282.233 334.799 281.46C333.986 280.673 333.579 279.52 333.579 278V271.9H335.499V277.78C335.499 278.807 335.746 279.587 336.239 280.12C336.733 280.64 337.439 280.9 338.359 280.9C339.373 280.9 340.173 280.593 340.759 279.98C341.346 279.367 341.639 278.5 341.639 277.38V271.9H343.559ZM353.975 282.5L350.915 278.44L347.815 282.5H345.675L349.855 277.08L345.875 271.9H348.015L350.935 275.72L353.835 271.9H355.935L351.935 277.08L356.155 282.5H353.975ZM358.71 282.62C358.336 282.62 358.016 282.493 357.75 282.24C357.483 281.973 357.35 281.64 357.35 281.24C357.35 280.853 357.483 280.533 357.75 280.28C358.016 280.013 358.336 279.88 358.71 279.88C359.083 279.88 359.396 280.007 359.65 280.26C359.903 280.513 360.03 280.84 360.03 281.24C360.03 281.64 359.896 281.973 359.63 282.24C359.376 282.493 359.07 282.62 358.71 282.62ZM368.441 271.8C369.788 271.8 370.854 272.193 371.641 272.98C372.441 273.753 372.841 274.893 372.841 276.4V282.5H370.921V276.62C370.921 275.593 370.674 274.82 370.181 274.3C369.688 273.78 368.981 273.52 368.061 273.52C367.021 273.52 366.201 273.827 365.601 274.44C365.001 275.04 364.701 275.907 364.701 277.04V282.5H362.781V271.9H364.621V273.5C365.008 272.953 365.528 272.533 366.181 272.24C366.848 271.947 367.601 271.8 368.441 271.8ZM386.593 271.9V281.06C386.593 282.913 386.133 284.28 385.213 285.16C384.293 286.053 382.919 286.5 381.093 286.5C380.093 286.5 379.139 286.36 378.233 286.08C377.326 285.813 376.593 285.427 376.033 284.92L376.953 283.44C377.446 283.867 378.053 284.2 378.773 284.44C379.506 284.693 380.259 284.82 381.033 284.82C382.273 284.82 383.186 284.527 383.773 283.94C384.373 283.353 384.673 282.46 384.673 281.26V280.42C384.219 280.967 383.659 281.38 382.993 281.66C382.339 281.927 381.626 282.06 380.853 282.06C379.839 282.06 378.919 281.847 378.093 281.42C377.279 280.98 376.639 280.373 376.173 279.6C375.706 278.813 375.473 277.92 375.473 276.92C375.473 275.92 375.706 275.033 376.173 274.26C376.639 273.473 377.279 272.867 378.093 272.44C378.919 272.013 379.839 271.8 380.853 271.8C381.653 271.8 382.393 271.947 383.073 272.24C383.766 272.533 384.333 272.967 384.773 273.54V271.9H386.593ZM381.073 280.38C381.766 280.38 382.386 280.233 382.933 279.94C383.493 279.647 383.926 279.24 384.233 278.72C384.553 278.187 384.713 277.587 384.713 276.92C384.713 275.893 384.373 275.067 383.693 274.44C383.013 273.8 382.139 273.48 381.073 273.48C379.993 273.48 379.113 273.8 378.433 274.44C377.753 275.067 377.413 275.893 377.413 276.92C377.413 277.587 377.566 278.187 377.873 278.72C378.193 279.24 378.626 279.647 379.173 279.94C379.733 280.233 380.366 280.38 381.073 280.38ZM398.841 268.36C400.641 268.36 402.248 268.733 403.661 269.48C405.075 270.213 406.175 271.247 406.961 272.58C407.761 273.913 408.161 275.433 408.161 277.14C408.161 278.847 407.848 280.187 407.221 281.16C406.595 282.133 405.721 282.62 404.601 282.62C403.961 282.62 403.428 282.46 403.001 282.14C402.588 281.807 402.321 281.333 402.201 280.72C401.801 281.333 401.275 281.807 400.621 282.14C399.981 282.46 399.241 282.62 398.401 282.62C397.468 282.62 396.628 282.4 395.881 281.96C395.135 281.52 394.548 280.913 394.121 280.14C393.708 279.353 393.501 278.467 393.501 277.48C393.501 276.507 393.708 275.633 394.121 274.86C394.548 274.073 395.135 273.467 395.881 273.04C396.628 272.6 397.468 272.38 398.401 272.38C399.175 272.38 399.875 272.527 400.501 272.82C401.128 273.1 401.648 273.52 402.061 274.08V272.46H403.801V279.66C403.801 280.153 403.908 280.52 404.121 280.76C404.335 280.987 404.608 281.1 404.941 281.1C405.528 281.1 405.981 280.76 406.301 280.08C406.635 279.387 406.801 278.413 406.801 277.16C406.801 275.68 406.468 274.38 405.801 273.26C405.135 272.127 404.195 271.247 402.981 270.62C401.781 269.993 400.401 269.68 398.841 269.68C397.268 269.68 395.875 270.007 394.661 270.66C393.461 271.313 392.528 272.227 391.861 273.4C391.195 274.573 390.861 275.913 390.861 277.42C390.861 278.94 391.188 280.287 391.841 281.46C392.508 282.633 393.435 283.547 394.621 284.2C395.821 284.867 397.201 285.2 398.761 285.2C399.415 285.2 400.081 285.127 400.761 284.98C401.441 284.833 402.061 284.613 402.621 284.32L403.061 285.6C402.475 285.907 401.795 286.14 401.021 286.3C400.248 286.46 399.495 286.54 398.761 286.54C396.935 286.54 395.308 286.147 393.881 285.36C392.468 284.587 391.368 283.507 390.581 282.12C389.795 280.733 389.401 279.167 389.401 277.42C389.401 275.673 389.795 274.113 390.581 272.74C391.381 271.367 392.495 270.293 393.921 269.52C395.361 268.747 397.001 268.36 398.841 268.36ZM398.681 281.06C399.335 281.06 399.915 280.913 400.421 280.62C400.941 280.327 401.348 279.913 401.641 279.38C401.948 278.833 402.101 278.2 402.101 277.48C402.101 276.76 401.948 276.133 401.641 275.6C401.348 275.053 400.941 274.64 400.421 274.36C399.915 274.067 399.335 273.92 398.681 273.92C397.668 273.92 396.848 274.247 396.221 274.9C395.595 275.54 395.281 276.4 395.281 277.48C395.281 278.56 395.595 279.427 396.221 280.08C396.861 280.733 397.681 281.06 398.681 281.06ZM421.085 271.9V281.06C421.085 282.913 420.625 284.28 419.705 285.16C418.785 286.053 417.412 286.5 415.585 286.5C414.585 286.5 413.632 286.36 412.725 286.08C411.818 285.813 411.085 285.427 410.525 284.92L411.445 283.44C411.938 283.867 412.545 284.2 413.265 284.44C413.998 284.693 414.752 284.82 415.525 284.82C416.765 284.82 417.678 284.527 418.265 283.94C418.865 283.353 419.165 282.46 419.165 281.26V280.42C418.712 280.967 418.152 281.38 417.485 281.66C416.832 281.927 416.118 282.06 415.345 282.06C414.332 282.06 413.412 281.847 412.585 281.42C411.772 280.98 411.132 280.373 410.665 279.6C410.198 278.813 409.965 277.92 409.965 276.92C409.965 275.92 410.198 275.033 410.665 274.26C411.132 273.473 411.772 272.867 412.585 272.44C413.412 272.013 414.332 271.8 415.345 271.8C416.145 271.8 416.885 271.947 417.565 272.24C418.258 272.533 418.825 272.967 419.265 273.54V271.9H421.085ZM415.565 280.38C416.258 280.38 416.878 280.233 417.425 279.94C417.985 279.647 418.418 279.24 418.725 278.72C419.045 278.187 419.205 277.587 419.205 276.92C419.205 275.893 418.865 275.067 418.185 274.44C417.505 273.8 416.632 273.48 415.565 273.48C414.485 273.48 413.605 273.8 412.925 274.44C412.245 275.067 411.905 275.893 411.905 276.92C411.905 277.587 412.058 278.187 412.365 278.72C412.685 279.24 413.118 279.647 413.665 279.94C414.225 280.233 414.858 280.38 415.565 280.38ZM438.014 271.8C439.347 271.8 440.4 272.187 441.174 272.96C441.96 273.733 442.354 274.88 442.354 276.4V282.5H440.434V276.62C440.434 275.593 440.194 274.82 439.714 274.3C439.247 273.78 438.574 273.52 437.694 273.52C436.72 273.52 435.947 273.827 435.374 274.44C434.8 275.04 434.514 275.907 434.514 277.04V282.5H432.594V276.62C432.594 275.593 432.354 274.82 431.874 274.3C431.407 273.78 430.734 273.52 429.854 273.52C428.88 273.52 428.107 273.827 427.534 274.44C426.96 275.04 426.674 275.907 426.674 277.04V282.5H424.754V271.9H426.594V273.48C426.98 272.933 427.487 272.52 428.114 272.24C428.74 271.947 429.454 271.8 430.254 271.8C431.08 271.8 431.814 271.967 432.454 272.3C433.094 272.633 433.587 273.12 433.934 273.76C434.334 273.147 434.887 272.667 435.594 272.32C436.314 271.973 437.12 271.8 438.014 271.8ZM449.746 271.8C451.213 271.8 452.333 272.16 453.106 272.88C453.893 273.6 454.286 274.673 454.286 276.1V282.5H452.466V281.1C452.146 281.593 451.686 281.973 451.086 282.24C450.5 282.493 449.8 282.62 448.986 282.62C447.8 282.62 446.846 282.333 446.126 281.76C445.42 281.187 445.066 280.433 445.066 279.5C445.066 278.567 445.406 277.82 446.086 277.26C446.766 276.687 447.846 276.4 449.326 276.4H452.366V276.02C452.366 275.193 452.126 274.56 451.646 274.12C451.166 273.68 450.46 273.46 449.526 273.46C448.9 273.46 448.286 273.567 447.686 273.78C447.086 273.98 446.58 274.253 446.166 274.6L445.366 273.16C445.913 272.72 446.566 272.387 447.326 272.16C448.086 271.92 448.893 271.8 449.746 271.8ZM449.306 281.14C450.04 281.14 450.673 280.98 451.206 280.66C451.74 280.327 452.126 279.86 452.366 279.26V277.78H449.406C447.78 277.78 446.966 278.327 446.966 279.42C446.966 279.953 447.173 280.373 447.586 280.68C448 280.987 448.573 281.14 449.306 281.14ZM457.84 271.9H459.76V282.5H457.84V271.9ZM458.8 269.86C458.426 269.86 458.113 269.74 457.86 269.5C457.62 269.26 457.5 268.967 457.5 268.62C457.5 268.273 457.62 267.98 457.86 267.74C458.113 267.487 458.426 267.36 458.8 267.36C459.173 267.36 459.48 267.48 459.72 267.72C459.973 267.947 460.1 268.233 460.1 268.58C460.1 268.94 459.973 269.247 459.72 269.5C459.48 269.74 459.173 269.86 458.8 269.86ZM463.425 267.66H465.345V282.5H463.425V267.66ZM469.471 282.62C469.098 282.62 468.778 282.493 468.511 282.24C468.245 281.973 468.111 281.64 468.111 281.24C468.111 280.853 468.245 280.533 468.511 280.28C468.778 280.013 469.098 279.88 469.471 279.88C469.845 279.88 470.158 280.007 470.411 280.26C470.665 280.513 470.791 280.84 470.791 281.24C470.791 281.64 470.658 281.973 470.391 282.24C470.138 282.493 469.831 282.62 469.471 282.62ZM477.928 282.62C476.848 282.62 475.882 282.387 475.028 281.92C474.188 281.453 473.528 280.813 473.048 280C472.568 279.173 472.328 278.24 472.328 277.2C472.328 276.16 472.568 275.233 473.048 274.42C473.528 273.593 474.188 272.953 475.028 272.5C475.882 272.033 476.848 271.8 477.928 271.8C478.888 271.8 479.742 271.993 480.488 272.38C481.248 272.767 481.835 273.327 482.248 274.06L480.788 275C480.455 274.493 480.042 274.113 479.548 273.86C479.055 273.607 478.508 273.48 477.908 273.48C477.215 273.48 476.588 273.633 476.028 273.94C475.482 274.247 475.048 274.687 474.728 275.26C474.422 275.82 474.268 276.467 474.268 277.2C474.268 277.947 474.422 278.607 474.728 279.18C475.048 279.74 475.482 280.173 476.028 280.48C476.588 280.787 477.215 280.94 477.908 280.94C478.508 280.94 479.055 280.813 479.548 280.56C480.042 280.307 480.455 279.927 480.788 279.42L482.248 280.34C481.835 281.073 481.248 281.64 480.488 282.04C479.742 282.427 478.888 282.62 477.928 282.62ZM489.118 282.62C488.064 282.62 487.118 282.387 486.278 281.92C485.438 281.453 484.778 280.813 484.298 280C483.831 279.173 483.598 278.24 483.598 277.2C483.598 276.16 483.831 275.233 484.298 274.42C484.778 273.593 485.438 272.953 486.278 272.5C487.118 272.033 488.064 271.8 489.118 271.8C490.171 271.8 491.111 272.033 491.938 272.5C492.778 272.953 493.431 273.593 493.898 274.42C494.378 275.233 494.618 276.16 494.618 277.2C494.618 278.24 494.378 279.173 493.898 280C493.431 280.813 492.778 281.453 491.938 281.92C491.111 282.387 490.171 282.62 489.118 282.62ZM489.118 280.94C489.798 280.94 490.404 280.787 490.938 280.48C491.484 280.16 491.911 279.72 492.218 279.16C492.524 278.587 492.678 277.933 492.678 277.2C492.678 276.467 492.524 275.82 492.218 275.26C491.911 274.687 491.484 274.247 490.938 273.94C490.404 273.633 489.798 273.48 489.118 273.48C488.438 273.48 487.824 273.633 487.278 273.94C486.744 274.247 486.318 274.687 485.998 275.26C485.691 275.82 485.538 276.467 485.538 277.2C485.538 277.933 485.691 278.587 485.998 279.16C486.318 279.72 486.744 280.16 487.278 280.48C487.824 280.787 488.438 280.94 489.118 280.94ZM510.533 271.8C511.866 271.8 512.92 272.187 513.693 272.96C514.48 273.733 514.873 274.88 514.873 276.4V282.5H512.953V276.62C512.953 275.593 512.713 274.82 512.233 274.3C511.766 273.78 511.093 273.52 510.213 273.52C509.24 273.52 508.466 273.827 507.893 274.44C507.32 275.04 507.033 275.907 507.033 277.04V282.5H505.113V276.62C505.113 275.593 504.873 274.82 504.393 274.3C503.926 273.78 503.253 273.52 502.373 273.52C501.4 273.52 500.626 273.827 500.053 274.44C499.48 275.04 499.193 275.907 499.193 277.04V282.5H497.273V271.9H499.113V273.48C499.5 272.933 500.006 272.52 500.633 272.24C501.26 271.947 501.973 271.8 502.773 271.8C503.6 271.8 504.333 271.967 504.973 272.3C505.613 272.633 506.106 273.12 506.453 273.76C506.853 273.147 507.406 272.667 508.113 272.32C508.833 271.973 509.64 271.8 510.533 271.8Z" fill="black" fill-opacity="0.25"/>
<g filter="url(#filter1_d_10_323)">
<path d="M709 235H779C795.569 235 809 248.431 809 265V280C809 296.569 795.569 310 779 310H709V235Z" fill="#0B153C"/>
</g>
<path d="M775.667 255.333L757.333 273.667" stroke="white" stroke-width="3" stroke-linecap="round" stroke-linejoin="round"/>
<path d="M775.667 255.333L764 288.667L757.333 273.667L742.333 267L775.667 255.333Z" stroke="white" stroke-width="3" stroke-linecap="round" stroke-linejoin="round"/>
<defs>
<filter id="filter0_d_10_323" x="256" y="235" width="458" height="83" filterUnits="userSpaceOnUse" color-interpolation-filters="sRGB">
<feFlood flood-opacity="0" result="BackgroundImageFix"/>
<feColorMatrix in="SourceAlpha" type="matrix" values="0 0 0 0 0 0 0 0 0 0 0 0 0 0 0 0 0 0 127 0" result="hardAlpha"/>
<feOffset dy="4"/>
<feGaussianBlur stdDeviation="2"/>
<feComposite in2="hardAlpha" operator="out"/>
<feColorMatrix type="matrix" values="0 0 0 0 0 0 0 0 0 0 0 0 0 0 0 0 0 0 0.1 0"/>
<feBlend mode="normal" in2="BackgroundImageFix" result="effect1_dropShadow_10_323"/>
<feBlend mode="normal" in="SourceGraphic" in2="effect1_dropShadow_10_323" result="shape"/>
</filter>
<filter id="filter1_d_10_323" x="705" y="235" width="108" height="83" filterUnits="userSpaceOnUse" color-interpolation-filters="sRGB">
<feFlood flood-opacity="0" result="BackgroundImageFix"/>
<feColorMatrix in="SourceAlpha" type="matrix" values="0 0 0 0 0 0 0 0 0 0 0 0 0 0 0 0 0 0 127 0" result="hardAlpha"/>
<feOffset dy="4"/>
<feGaussianBlur stdDeviation="2"/>
<feComposite in2="hardAlpha" operator="out"/>
<feColorMatrix type="matrix" values="0 0 0 0 0 0 0 0 0 0 0 0 0 0 0 0 0 0 0.1 0"/>
<feBlend mode="normal" in2="BackgroundImageFix" result="effect1_dropShadow_10_323"/>
<feBlend mode="normal" in="SourceGraphic" in2="effect1_dropShadow_10_323" result="shape"/>
</filter>
</defs>
</svg>
