<svg width="1299" height="220" viewBox="0 0 1299 220" fill="none" xmlns="http://www.w3.org/2000/svg">
<rect width="49.9615" height="50" rx="10" fill="#C4C4C4" fill-opacity="0.1"/>
<path d="M24.9806 37.5C31.8789 37.5 37.471 31.9036 37.471 25C37.471 18.0964 31.8789 12.5 24.9806 12.5C18.0824 12.5 12.4902 18.0964 12.4902 25C12.4902 31.9036 18.0824 37.5 24.9806 37.5Z" stroke="#17C2EC" stroke-width="2" stroke-linecap="round" stroke-linejoin="round"/>
<path d="M24.9807 17.5V25L29.9769 27.5" stroke="#17C2EC" stroke-width="2" stroke-linecap="round" stroke-linejoin="round"/>
<path d="M77.458 35.288C76.13 35.288 74.842 35.112 73.594 34.76C72.362 34.392 71.37 33.92 70.618 33.344L71.938 30.416C72.658 30.944 73.514 31.368 74.506 31.688C75.498 32.008 76.49 32.168 77.482 32.168C78.586 32.168 79.402 32.008 79.93 31.688C80.458 31.352 80.722 30.912 80.722 30.368C80.722 29.968 80.562 29.64 80.242 29.384C79.938 29.112 79.538 28.896 79.042 28.736C78.562 28.576 77.906 28.4 77.074 28.208C75.794 27.904 74.746 27.6 73.93 27.296C73.114 26.992 72.41 26.504 71.818 25.832C71.242 25.16 70.954 24.264 70.954 23.144C70.954 22.168 71.218 21.288 71.746 20.504C72.274 19.704 73.066 19.072 74.122 18.608C75.194 18.144 76.498 17.912 78.034 17.912C79.106 17.912 80.154 18.04 81.178 18.296C82.202 18.552 83.098 18.92 83.866 19.4L82.666 22.352C81.114 21.472 79.562 21.032 78.01 21.032C76.922 21.032 76.114 21.208 75.586 21.56C75.074 21.912 74.818 22.376 74.818 22.952C74.818 23.528 75.114 23.96 75.706 24.248C76.314 24.52 77.234 24.792 78.466 25.064C79.746 25.368 80.794 25.672 81.61 25.976C82.426 26.28 83.122 26.76 83.698 27.416C84.29 28.072 84.586 28.96 84.586 30.08C84.586 31.04 84.314 31.92 83.77 32.72C83.242 33.504 82.442 34.128 81.37 34.592C80.298 35.056 78.994 35.288 77.458 35.288ZM93.2187 35.192C91.8427 35.192 90.6027 34.912 89.4987 34.352C88.4107 33.776 87.5547 32.984 86.9307 31.976C86.3227 30.968 86.0187 29.824 86.0187 28.544C86.0187 27.264 86.3227 26.12 86.9307 25.112C87.5547 24.104 88.4107 23.32 89.4987 22.76C90.6027 22.184 91.8427 21.896 93.2187 21.896C94.5787 21.896 95.7627 22.184 96.7707 22.76C97.7947 23.32 98.5387 24.128 99.0027 25.184L96.0987 26.744C95.4267 25.56 94.4587 24.968 93.1947 24.968C92.2187 24.968 91.4107 25.288 90.7707 25.928C90.1307 26.568 89.8107 27.44 89.8107 28.544C89.8107 29.648 90.1307 30.52 90.7707 31.16C91.4107 31.8 92.2187 32.12 93.1947 32.12C94.4747 32.12 95.4427 31.528 96.0987 30.344L99.0027 31.928C98.5387 32.952 97.7947 33.752 96.7707 34.328C95.7627 34.904 94.5787 35.192 93.2187 35.192ZM108.913 21.896C110.513 21.896 111.801 22.376 112.777 23.336C113.769 24.296 114.265 25.72 114.265 27.608V35H110.521V28.184C110.521 27.16 110.297 26.4 109.849 25.904C109.401 25.392 108.753 25.136 107.905 25.136C106.961 25.136 106.209 25.432 105.649 26.024C105.089 26.6 104.809 27.464 104.809 28.616V35H101.065V17.192H104.809V23.432C105.305 22.936 105.905 22.56 106.609 22.304C107.313 22.032 108.081 21.896 108.913 21.896ZM130.447 28.592C130.447 28.64 130.423 28.976 130.375 29.6H120.607C120.783 30.4 121.199 31.032 121.855 31.496C122.511 31.96 123.327 32.192 124.303 32.192C124.975 32.192 125.567 32.096 126.079 31.904C126.607 31.696 127.095 31.376 127.543 30.944L129.535 33.104C128.319 34.496 126.543 35.192 124.207 35.192C122.751 35.192 121.463 34.912 120.343 34.352C119.223 33.776 118.359 32.984 117.751 31.976C117.143 30.968 116.839 29.824 116.839 28.544C116.839 27.28 117.135 26.144 117.727 25.136C118.335 24.112 119.159 23.32 120.199 22.76C121.255 22.184 122.431 21.896 123.727 21.896C124.991 21.896 126.135 22.168 127.159 22.712C128.183 23.256 128.983 24.04 129.559 25.064C130.151 26.072 130.447 27.248 130.447 28.592ZM123.751 24.728C122.903 24.728 122.191 24.968 121.615 25.448C121.039 25.928 120.687 26.584 120.559 27.416H126.919C126.791 26.6 126.439 25.952 125.863 25.472C125.287 24.976 124.583 24.728 123.751 24.728ZM146.092 17.192V35H142.516V33.512C141.588 34.632 140.244 35.192 138.484 35.192C137.268 35.192 136.164 34.92 135.172 34.376C134.196 33.832 133.428 33.056 132.868 32.048C132.308 31.04 132.028 29.872 132.028 28.544C132.028 27.216 132.308 26.048 132.868 25.04C133.428 24.032 134.196 23.256 135.172 22.712C136.164 22.168 137.268 21.896 138.484 21.896C140.132 21.896 141.42 22.416 142.348 23.456V17.192H146.092ZM139.132 32.12C140.076 32.12 140.86 31.8 141.484 31.16C142.108 30.504 142.42 29.632 142.42 28.544C142.42 27.456 142.108 26.592 141.484 25.952C140.86 25.296 140.076 24.968 139.132 24.968C138.172 24.968 137.38 25.296 136.756 25.952C136.132 26.592 135.82 27.456 135.82 28.544C135.82 29.632 136.132 30.504 136.756 31.16C137.38 31.8 138.172 32.12 139.132 32.12ZM162.565 22.088V35H159.013V33.464C158.517 34.024 157.925 34.456 157.237 34.76C156.549 35.048 155.805 35.192 155.005 35.192C153.309 35.192 151.965 34.704 150.973 33.728C149.981 32.752 149.485 31.304 149.485 29.384V22.088H153.229V28.832C153.229 30.912 154.101 31.952 155.845 31.952C156.741 31.952 157.461 31.664 158.005 31.088C158.549 30.496 158.821 29.624 158.821 28.472V22.088H162.565ZM166.033 17.192H169.777V35H166.033V17.192ZM185.9 28.592C185.9 28.64 185.876 28.976 185.828 29.6H176.06C176.236 30.4 176.652 31.032 177.308 31.496C177.964 31.96 178.78 32.192 179.756 32.192C180.428 32.192 181.02 32.096 181.532 31.904C182.06 31.696 182.548 31.376 182.996 30.944L184.988 33.104C183.772 34.496 181.996 35.192 179.66 35.192C178.204 35.192 176.916 34.912 175.796 34.352C174.676 33.776 173.812 32.984 173.204 31.976C172.596 30.968 172.292 29.824 172.292 28.544C172.292 27.28 172.588 26.144 173.18 25.136C173.788 24.112 174.612 23.32 175.652 22.76C176.708 22.184 177.884 21.896 179.18 21.896C180.444 21.896 181.588 22.168 182.612 22.712C183.636 23.256 184.436 24.04 185.012 25.064C185.604 26.072 185.9 27.248 185.9 28.592ZM179.204 24.728C178.356 24.728 177.644 24.968 177.068 25.448C176.492 25.928 176.14 26.584 176.012 27.416H182.372C182.244 26.6 181.892 25.952 181.316 25.472C180.74 24.976 180.036 24.728 179.204 24.728ZM208.006 22.088L202.174 35.792C201.582 37.28 200.846 38.328 199.966 38.936C199.102 39.544 198.054 39.848 196.822 39.848C196.15 39.848 195.486 39.744 194.83 39.536C194.174 39.328 193.638 39.04 193.222 38.672L194.59 36.008C194.878 36.264 195.206 36.464 195.574 36.608C195.958 36.752 196.334 36.824 196.702 36.824C197.214 36.824 197.63 36.696 197.95 36.44C198.27 36.2 198.558 35.792 198.814 35.216L198.862 35.096L193.27 22.088H197.134L200.758 30.848L204.406 22.088H208.006ZM215.326 35.192C213.966 35.192 212.742 34.912 211.654 34.352C210.582 33.776 209.742 32.984 209.134 31.976C208.526 30.968 208.222 29.824 208.222 28.544C208.222 27.264 208.526 26.12 209.134 25.112C209.742 24.104 210.582 23.32 211.654 22.76C212.742 22.184 213.966 21.896 215.326 21.896C216.686 21.896 217.902 22.184 218.974 22.76C220.046 23.32 220.886 24.104 221.494 25.112C222.102 26.12 222.406 27.264 222.406 28.544C222.406 29.824 222.102 30.968 221.494 31.976C220.886 32.984 220.046 33.776 218.974 34.352C217.902 34.912 216.686 35.192 215.326 35.192ZM215.326 32.12C216.286 32.12 217.07 31.8 217.678 31.16C218.302 30.504 218.614 29.632 218.614 28.544C218.614 27.456 218.302 26.592 217.678 25.952C217.07 25.296 216.286 24.968 215.326 24.968C214.366 24.968 213.574 25.296 212.95 25.952C212.326 26.592 212.014 27.456 212.014 28.544C212.014 29.632 212.326 30.504 212.95 31.16C213.574 31.8 214.366 32.12 215.326 32.12ZM237.916 22.088V35H234.364V33.464C233.868 34.024 233.276 34.456 232.588 34.76C231.9 35.048 231.156 35.192 230.356 35.192C228.66 35.192 227.316 34.704 226.324 33.728C225.332 32.752 224.836 31.304 224.836 29.384V22.088H228.58V28.832C228.58 30.912 229.452 31.952 231.196 31.952C232.092 31.952 232.812 31.664 233.356 31.088C233.9 30.496 234.172 29.624 234.172 28.472V22.088H237.916ZM244.961 23.792C245.409 23.168 246.009 22.696 246.761 22.376C247.529 22.056 248.409 21.896 249.401 21.896V25.352C248.985 25.32 248.705 25.304 248.561 25.304C247.489 25.304 246.649 25.608 246.041 26.216C245.433 26.808 245.129 27.704 245.129 28.904V35H241.385V22.088H244.961V23.792ZM274.934 18.2L267.662 35H263.822L256.574 18.2H260.774L265.886 30.2L271.07 18.2H274.934ZM280.32 21.896C282.32 21.896 283.856 22.376 284.928 23.336C286 24.28 286.536 25.712 286.536 27.632V35H283.032V33.392C282.328 34.592 281.016 35.192 279.096 35.192C278.104 35.192 277.24 35.024 276.504 34.688C275.784 34.352 275.232 33.888 274.848 33.296C274.464 32.704 274.272 32.032 274.272 31.28C274.272 30.08 274.72 29.136 275.616 28.448C276.528 27.76 277.928 27.416 279.816 27.416H282.792C282.792 26.6 282.544 25.976 282.048 25.544C281.552 25.096 280.808 24.872 279.816 24.872C279.128 24.872 278.448 24.984 277.776 25.208C277.12 25.416 276.56 25.704 276.096 26.072L274.752 23.456C275.456 22.96 276.296 22.576 277.272 22.304C278.264 22.032 279.28 21.896 280.32 21.896ZM280.032 32.672C280.672 32.672 281.24 32.528 281.736 32.24C282.232 31.936 282.584 31.496 282.792 30.92V29.6H280.224C278.688 29.6 277.92 30.104 277.92 31.112C277.92 31.592 278.104 31.976 278.472 32.264C278.856 32.536 279.376 32.672 280.032 32.672ZM296.305 35.192C294.929 35.192 293.689 34.912 292.585 34.352C291.497 33.776 290.641 32.984 290.017 31.976C289.409 30.968 289.105 29.824 289.105 28.544C289.105 27.264 289.409 26.12 290.017 25.112C290.641 24.104 291.497 23.32 292.585 22.76C293.689 22.184 294.929 21.896 296.305 21.896C297.665 21.896 298.849 22.184 299.857 22.76C300.881 23.32 301.625 24.128 302.089 25.184L299.185 26.744C298.513 25.56 297.545 24.968 296.281 24.968C295.305 24.968 294.497 25.288 293.857 25.928C293.217 26.568 292.897 27.44 292.897 28.544C292.897 29.648 293.217 30.52 293.857 31.16C294.497 31.8 295.305 32.12 296.281 32.12C297.561 32.12 298.529 31.528 299.185 30.344L302.089 31.928C301.625 32.952 300.881 33.752 299.857 34.328C298.849 34.904 297.665 35.192 296.305 35.192ZM310.32 35.192C308.944 35.192 307.704 34.912 306.6 34.352C305.512 33.776 304.656 32.984 304.032 31.976C303.424 30.968 303.12 29.824 303.12 28.544C303.12 27.264 303.424 26.12 304.032 25.112C304.656 24.104 305.512 23.32 306.6 22.76C307.704 22.184 308.944 21.896 310.32 21.896C311.68 21.896 312.864 22.184 313.872 22.76C314.896 23.32 315.64 24.128 316.104 25.184L313.2 26.744C312.528 25.56 311.56 24.968 310.296 24.968C309.32 24.968 308.512 25.288 307.872 25.928C307.232 26.568 306.912 27.44 306.912 28.544C306.912 29.648 307.232 30.52 307.872 31.16C308.512 31.8 309.32 32.12 310.296 32.12C311.576 32.12 312.544 31.528 313.2 30.344L316.104 31.928C315.64 32.952 314.896 33.752 313.872 34.328C312.864 34.904 311.68 35.192 310.32 35.192ZM318.26 22.088H322.004V35H318.26V22.088ZM320.132 20.288C319.444 20.288 318.884 20.088 318.452 19.688C318.02 19.288 317.804 18.792 317.804 18.2C317.804 17.608 318.02 17.112 318.452 16.712C318.884 16.312 319.444 16.112 320.132 16.112C320.82 16.112 321.38 16.304 321.812 16.688C322.244 17.072 322.46 17.552 322.46 18.128C322.46 18.752 322.244 19.272 321.812 19.688C321.38 20.088 320.82 20.288 320.132 20.288ZM333.327 21.896C334.927 21.896 336.215 22.376 337.191 23.336C338.183 24.296 338.679 25.72 338.679 27.608V35H334.935V28.184C334.935 27.16 334.711 26.4 334.263 25.904C333.815 25.392 333.167 25.136 332.319 25.136C331.375 25.136 330.623 25.432 330.063 26.024C329.503 26.6 329.223 27.464 329.223 28.616V35H325.479V22.088H329.055V23.6C329.551 23.056 330.167 22.64 330.903 22.352C331.639 22.048 332.447 21.896 333.327 21.896ZM347.28 21.896C349.28 21.896 350.816 22.376 351.888 23.336C352.96 24.28 353.496 25.712 353.496 27.632V35H349.992V33.392C349.288 34.592 347.976 35.192 346.056 35.192C345.064 35.192 344.2 35.024 343.464 34.688C342.744 34.352 342.192 33.888 341.808 33.296C341.424 32.704 341.232 32.032 341.232 31.28C341.232 30.08 341.68 29.136 342.576 28.448C343.488 27.76 344.888 27.416 346.776 27.416H349.752C349.752 26.6 349.504 25.976 349.008 25.544C348.512 25.096 347.768 24.872 346.776 24.872C346.088 24.872 345.408 24.984 344.736 25.208C344.08 25.416 343.52 25.704 343.056 26.072L341.712 23.456C342.416 22.96 343.256 22.576 344.232 22.304C345.224 22.032 346.24 21.896 347.28 21.896ZM346.992 32.672C347.632 32.672 348.2 32.528 348.696 32.24C349.192 31.936 349.544 31.496 349.752 30.92V29.6H347.184C345.648 29.6 344.88 30.104 344.88 31.112C344.88 31.592 345.064 31.976 345.432 32.264C345.816 32.536 346.336 32.672 346.992 32.672ZM365.213 34.376C364.845 34.648 364.389 34.856 363.845 35C363.317 35.128 362.757 35.192 362.165 35.192C360.629 35.192 359.437 34.8 358.589 34.016C357.757 33.232 357.341 32.08 357.341 30.56V25.256H355.349V22.376H357.341V19.232H361.085V22.376H364.301V25.256H361.085V30.512C361.085 31.056 361.221 31.48 361.493 31.784C361.781 32.072 362.181 32.216 362.693 32.216C363.285 32.216 363.789 32.056 364.205 31.736L365.213 34.376ZM367.315 22.088H371.059V35H367.315V22.088ZM369.187 20.288C368.499 20.288 367.939 20.088 367.507 19.688C367.075 19.288 366.859 18.792 366.859 18.2C366.859 17.608 367.075 17.112 367.507 16.712C367.939 16.312 368.499 16.112 369.187 16.112C369.875 16.112 370.435 16.304 370.867 16.688C371.299 17.072 371.515 17.552 371.515 18.128C371.515 18.752 371.299 19.272 370.867 19.688C370.435 20.088 369.875 20.288 369.187 20.288ZM380.677 35.192C379.317 35.192 378.093 34.912 377.005 34.352C375.933 33.776 375.093 32.984 374.485 31.976C373.877 30.968 373.573 29.824 373.573 28.544C373.573 27.264 373.877 26.12 374.485 25.112C375.093 24.104 375.933 23.32 377.005 22.76C378.093 22.184 379.317 21.896 380.677 21.896C382.037 21.896 383.253 22.184 384.325 22.76C385.397 23.32 386.237 24.104 386.845 25.112C387.453 26.12 387.757 27.264 387.757 28.544C387.757 29.824 387.453 30.968 386.845 31.976C386.237 32.984 385.397 33.776 384.325 34.352C383.253 34.912 382.037 35.192 380.677 35.192ZM380.677 32.12C381.637 32.12 382.421 31.8 383.029 31.16C383.653 30.504 383.965 29.632 383.965 28.544C383.965 27.456 383.653 26.592 383.029 25.952C382.421 25.296 381.637 24.968 380.677 24.968C379.717 24.968 378.925 25.296 378.301 25.952C377.677 26.592 377.365 27.456 377.365 28.544C377.365 29.632 377.677 30.504 378.301 31.16C378.925 31.8 379.717 32.12 380.677 32.12ZM398.108 21.896C399.708 21.896 400.996 22.376 401.972 23.336C402.964 24.296 403.46 25.72 403.46 27.608V35H399.716V28.184C399.716 27.16 399.492 26.4 399.044 25.904C398.596 25.392 397.948 25.136 397.1 25.136C396.156 25.136 395.404 25.432 394.844 26.024C394.284 26.6 394.004 27.464 394.004 28.616V35H390.26V22.088H393.836V23.6C394.332 23.056 394.948 22.64 395.684 22.352C396.42 22.048 397.228 21.896 398.108 21.896Z" fill="white"/>
<path d="M0 90C0 78.9543 8.95431 70 20 70H1279C1290.05 70 1299 78.9543 1299 90V220H0V90Z" fill="#C4C4C4" fill-opacity="0.1"/>
<path d="M0 80C0 68.9543 8.95431 60 20 60H1279C1290.05 60 1299 68.9543 1299 80V220H0V80Z" fill="#C4C4C4" fill-opacity="0.05"/>
<path d="M112.171 122.2H115.291V136.36H124.075V139H112.171V122.2ZM131.893 139.168C130.597 139.168 129.429 138.888 128.389 138.328C127.349 137.768 126.533 136.992 125.941 136C125.365 134.992 125.077 133.856 125.077 132.592C125.077 131.328 125.365 130.2 125.941 129.208C126.533 128.216 127.349 127.44 128.389 126.88C129.429 126.32 130.597 126.04 131.893 126.04C133.205 126.04 134.381 126.32 135.421 126.88C136.461 127.44 137.269 128.216 137.845 129.208C138.437 130.2 138.733 131.328 138.733 132.592C138.733 133.856 138.437 134.992 137.845 136C137.269 136.992 136.461 137.768 135.421 138.328C134.381 138.888 133.205 139.168 131.893 139.168ZM131.893 136.6C132.997 136.6 133.909 136.232 134.629 135.496C135.349 134.76 135.709 133.792 135.709 132.592C135.709 131.392 135.349 130.424 134.629 129.688C133.909 128.952 132.997 128.584 131.893 128.584C130.789 128.584 129.877 128.952 129.157 129.688C128.453 130.424 128.101 131.392 128.101 132.592C128.101 133.792 128.453 134.76 129.157 135.496C129.877 136.232 130.789 136.6 131.893 136.6ZM147.482 139.168C146.154 139.168 144.962 138.888 143.906 138.328C142.85 137.768 142.026 136.992 141.434 136C140.842 134.992 140.546 133.856 140.546 132.592C140.546 131.328 140.842 130.2 141.434 129.208C142.026 128.216 142.842 127.44 143.882 126.88C144.938 126.32 146.138 126.04 147.482 126.04C148.746 126.04 149.85 126.296 150.794 126.808C151.754 127.32 152.474 128.056 152.954 129.016L150.65 130.36C150.282 129.768 149.818 129.328 149.258 129.04C148.714 128.736 148.114 128.584 147.458 128.584C146.338 128.584 145.41 128.952 144.674 129.688C143.938 130.408 143.57 131.376 143.57 132.592C143.57 133.808 143.93 134.784 144.65 135.52C145.386 136.24 146.322 136.6 147.458 136.6C148.114 136.6 148.714 136.456 149.258 136.168C149.818 135.864 150.282 135.416 150.65 134.824L152.954 136.168C152.458 137.128 151.73 137.872 150.77 138.4C149.826 138.912 148.73 139.168 147.482 139.168ZM160.443 126.04C162.331 126.04 163.771 126.496 164.763 127.408C165.771 128.304 166.275 129.664 166.275 131.488V139H163.443V137.44C163.075 138 162.547 138.432 161.859 138.736C161.187 139.024 160.371 139.168 159.411 139.168C158.451 139.168 157.611 139.008 156.891 138.688C156.171 138.352 155.611 137.896 155.211 137.32C154.827 136.728 154.635 136.064 154.635 135.328C154.635 134.176 155.059 133.256 155.907 132.568C156.771 131.864 158.123 131.512 159.963 131.512H163.275V131.32C163.275 130.424 163.003 129.736 162.459 129.256C161.931 128.776 161.139 128.536 160.083 128.536C159.363 128.536 158.651 128.648 157.947 128.872C157.259 129.096 156.675 129.408 156.195 129.808L155.019 127.624C155.691 127.112 156.499 126.72 157.443 126.448C158.387 126.176 159.387 126.04 160.443 126.04ZM160.035 136.984C160.787 136.984 161.451 136.816 162.027 136.48C162.619 136.128 163.035 135.632 163.275 134.992V133.504H160.179C158.451 133.504 157.587 134.072 157.587 135.208C157.587 135.752 157.803 136.184 158.235 136.504C158.667 136.824 159.267 136.984 160.035 136.984ZM177.829 138.304C177.477 138.592 177.045 138.808 176.533 138.952C176.037 139.096 175.509 139.168 174.949 139.168C173.541 139.168 172.453 138.8 171.685 138.064C170.917 137.328 170.533 136.256 170.533 134.848V128.68H168.421V126.28H170.533V123.352H173.533V126.28H176.965V128.68H173.533V134.776C173.533 135.4 173.685 135.88 173.989 136.216C174.293 136.536 174.733 136.696 175.309 136.696C175.981 136.696 176.541 136.52 176.989 136.168L177.829 138.304ZM180.297 126.184H183.297V139H180.297V126.184ZM181.809 124.072C181.265 124.072 180.809 123.904 180.441 123.568C180.073 123.216 179.889 122.784 179.889 122.272C179.889 121.76 180.073 121.336 180.441 121C180.809 120.648 181.265 120.472 181.809 120.472C182.353 120.472 182.809 120.64 183.177 120.976C183.545 121.296 183.729 121.704 183.729 122.2C183.729 122.728 183.545 123.176 183.177 123.544C182.825 123.896 182.369 124.072 181.809 124.072ZM192.995 139.168C191.699 139.168 190.531 138.888 189.491 138.328C188.451 137.768 187.635 136.992 187.043 136C186.467 134.992 186.179 133.856 186.179 132.592C186.179 131.328 186.467 130.2 187.043 129.208C187.635 128.216 188.451 127.44 189.491 126.88C190.531 126.32 191.699 126.04 192.995 126.04C194.307 126.04 195.483 126.32 196.523 126.88C197.563 127.44 198.371 128.216 198.947 129.208C199.539 130.2 199.835 131.328 199.835 132.592C199.835 133.856 199.539 134.992 198.947 136C198.371 136.992 197.563 137.768 196.523 138.328C195.483 138.888 194.307 139.168 192.995 139.168ZM192.995 136.6C194.099 136.6 195.011 136.232 195.731 135.496C196.451 134.76 196.811 133.792 196.811 132.592C196.811 131.392 196.451 130.424 195.731 129.688C195.011 128.952 194.099 128.584 192.995 128.584C191.891 128.584 190.979 128.952 190.259 129.688C189.555 130.424 189.203 131.392 189.203 132.592C189.203 133.792 189.555 134.76 190.259 135.496C190.979 136.232 191.891 136.6 192.995 136.6ZM209.976 126.04C211.592 126.04 212.888 126.512 213.864 127.456C214.84 128.4 215.328 129.8 215.328 131.656V139H212.328V132.04C212.328 130.92 212.064 130.08 211.536 129.52C211.008 128.944 210.256 128.656 209.28 128.656C208.176 128.656 207.304 128.992 206.664 129.664C206.024 130.32 205.704 131.272 205.704 132.52V139H202.704V126.184H205.56V127.84C206.056 127.248 206.68 126.8 207.432 126.496C208.184 126.192 209.032 126.04 209.976 126.04Z" fill="white" fill-opacity="0.5"/>
<path d="M111.907 151.2H115.795V168H111.907V151.2ZM125.062 162.936L123.262 164.712V168H119.518V150.192H123.262V160.272L128.734 155.088H133.198L127.822 160.56L133.678 168H129.142L125.062 162.936ZM147.448 161.592C147.448 161.64 147.424 161.976 147.376 162.6H137.608C137.784 163.4 138.2 164.032 138.856 164.496C139.512 164.96 140.328 165.192 141.304 165.192C141.976 165.192 142.568 165.096 143.08 164.904C143.608 164.696 144.096 164.376 144.544 163.944L146.536 166.104C145.32 167.496 143.544 168.192 141.208 168.192C139.752 168.192 138.464 167.912 137.344 167.352C136.224 166.776 135.36 165.984 134.752 164.976C134.144 163.968 133.84 162.824 133.84 161.544C133.84 160.28 134.136 159.144 134.728 158.136C135.336 157.112 136.16 156.32 137.2 155.76C138.256 155.184 139.432 154.896 140.728 154.896C141.992 154.896 143.136 155.168 144.16 155.712C145.184 156.256 145.984 157.04 146.56 158.064C147.152 159.072 147.448 160.248 147.448 161.592ZM140.752 157.728C139.904 157.728 139.192 157.968 138.616 158.448C138.04 158.928 137.688 159.584 137.56 160.416H143.92C143.792 159.6 143.44 158.952 142.864 158.472C142.288 157.976 141.584 157.728 140.752 157.728ZM148.98 172.848C147.668 172.848 146.668 172.608 145.98 172.128L146.988 169.416C147.42 169.72 147.948 169.872 148.572 169.872C149.052 169.872 149.428 169.712 149.7 169.392C149.972 169.088 150.108 168.624 150.108 168V155.088H153.852V167.976C153.852 169.48 153.42 170.664 152.556 171.528C151.708 172.408 150.516 172.848 148.98 172.848ZM151.98 153.288C151.292 153.288 150.732 153.088 150.3 152.688C149.868 152.288 149.652 151.792 149.652 151.2C149.652 150.608 149.868 150.112 150.3 149.712C150.732 149.312 151.292 149.112 151.98 149.112C152.668 149.112 153.228 149.304 153.66 149.688C154.092 150.072 154.308 150.552 154.308 151.128C154.308 151.752 154.092 152.272 153.66 152.688C153.228 153.088 152.668 153.288 151.98 153.288ZM162.508 154.896C164.508 154.896 166.044 155.376 167.116 156.336C168.188 157.28 168.724 158.712 168.724 160.632V168H165.22V166.392C164.516 167.592 163.204 168.192 161.284 168.192C160.292 168.192 159.428 168.024 158.692 167.688C157.972 167.352 157.42 166.888 157.036 166.296C156.652 165.704 156.46 165.032 156.46 164.28C156.46 163.08 156.908 162.136 157.804 161.448C158.716 160.76 160.116 160.416 162.004 160.416H164.98C164.98 159.6 164.732 158.976 164.236 158.544C163.74 158.096 162.996 157.872 162.004 157.872C161.316 157.872 160.636 157.984 159.964 158.208C159.308 158.416 158.748 158.704 158.284 159.072L156.94 156.456C157.644 155.96 158.484 155.576 159.46 155.304C160.452 155.032 161.468 154.896 162.508 154.896ZM162.22 165.672C162.86 165.672 163.428 165.528 163.924 165.24C164.42 164.936 164.772 164.496 164.98 163.92V162.6H162.412C160.876 162.6 160.108 163.104 160.108 164.112C160.108 164.592 160.292 164.976 160.66 165.264C161.044 165.536 161.564 165.672 162.22 165.672ZM179.173 151.2H183.061V164.832H191.485V168H179.173V151.2ZM198.742 154.896C200.742 154.896 202.278 155.376 203.35 156.336C204.422 157.28 204.958 158.712 204.958 160.632V168H201.454V166.392C200.75 167.592 199.438 168.192 197.518 168.192C196.526 168.192 195.662 168.024 194.926 167.688C194.206 167.352 193.654 166.888 193.27 166.296C192.886 165.704 192.694 165.032 192.694 164.28C192.694 163.08 193.142 162.136 194.038 161.448C194.95 160.76 196.35 160.416 198.238 160.416H201.214C201.214 159.6 200.966 158.976 200.47 158.544C199.974 158.096 199.23 157.872 198.238 157.872C197.55 157.872 196.87 157.984 196.198 158.208C195.542 158.416 194.982 158.704 194.518 159.072L193.174 156.456C193.878 155.96 194.718 155.576 195.694 155.304C196.686 155.032 197.702 154.896 198.742 154.896ZM198.454 165.672C199.094 165.672 199.662 165.528 200.158 165.24C200.654 164.936 201.006 164.496 201.214 163.92V162.6H198.646C197.11 162.6 196.342 163.104 196.342 164.112C196.342 164.592 196.526 164.976 196.894 165.264C197.278 165.536 197.798 165.672 198.454 165.672ZM221.807 155.088V165.84C221.807 168.208 221.191 169.968 219.959 171.12C218.727 172.272 216.927 172.848 214.559 172.848C213.311 172.848 212.127 172.696 211.007 172.392C209.887 172.088 208.959 171.648 208.223 171.072L209.711 168.384C210.255 168.832 210.943 169.184 211.775 169.44C212.607 169.712 213.439 169.848 214.271 169.848C215.567 169.848 216.519 169.552 217.127 168.96C217.751 168.384 218.063 167.504 218.063 166.32V165.768C217.087 166.84 215.727 167.376 213.983 167.376C212.799 167.376 211.711 167.12 210.719 166.608C209.743 166.08 208.967 165.344 208.391 164.4C207.815 163.456 207.527 162.368 207.527 161.136C207.527 159.904 207.815 158.816 208.391 157.872C208.967 156.928 209.743 156.2 210.719 155.688C211.711 155.16 212.799 154.896 213.983 154.896C215.855 154.896 217.279 155.512 218.255 156.744V155.088H221.807ZM214.727 164.304C215.719 164.304 216.527 164.016 217.151 163.44C217.791 162.848 218.111 162.08 218.111 161.136C218.111 160.192 217.791 159.432 217.151 158.856C216.527 158.264 215.719 157.968 214.727 157.968C213.735 157.968 212.919 158.264 212.279 158.856C211.639 159.432 211.319 160.192 211.319 161.136C211.319 162.08 211.639 162.848 212.279 163.44C212.919 164.016 213.735 164.304 214.727 164.304ZM231.436 168.192C230.076 168.192 228.852 167.912 227.764 167.352C226.692 166.776 225.852 165.984 225.244 164.976C224.636 163.968 224.332 162.824 224.332 161.544C224.332 160.264 224.636 159.12 225.244 158.112C225.852 157.104 226.692 156.32 227.764 155.76C228.852 155.184 230.076 154.896 231.436 154.896C232.796 154.896 234.012 155.184 235.084 155.76C236.156 156.32 236.996 157.104 237.604 158.112C238.212 159.12 238.516 160.264 238.516 161.544C238.516 162.824 238.212 163.968 237.604 164.976C236.996 165.984 236.156 166.776 235.084 167.352C234.012 167.912 232.796 168.192 231.436 168.192ZM231.436 165.12C232.396 165.12 233.18 164.8 233.788 164.16C234.412 163.504 234.724 162.632 234.724 161.544C234.724 160.456 234.412 159.592 233.788 158.952C233.18 158.296 232.396 157.968 231.436 157.968C230.476 157.968 229.684 158.296 229.06 158.952C228.436 159.592 228.124 160.456 228.124 161.544C228.124 162.632 228.436 163.504 229.06 164.16C229.684 164.8 230.476 165.12 231.436 165.12ZM245.362 168.192C244.29 168.192 243.242 168.064 242.218 167.808C241.194 167.536 240.378 167.2 239.77 166.8L241.018 164.112C241.594 164.48 242.29 164.784 243.106 165.024C243.922 165.248 244.722 165.36 245.506 165.36C247.09 165.36 247.882 164.968 247.882 164.184C247.882 163.816 247.666 163.552 247.234 163.392C246.802 163.232 246.138 163.096 245.242 162.984C244.186 162.824 243.314 162.64 242.626 162.432C241.938 162.224 241.338 161.856 240.826 161.328C240.33 160.8 240.082 160.048 240.082 159.072C240.082 158.256 240.314 157.536 240.778 156.912C241.258 156.272 241.946 155.776 242.842 155.424C243.754 155.072 244.826 154.896 246.058 154.896C246.97 154.896 247.874 155 248.77 155.208C249.682 155.4 250.434 155.672 251.026 156.024L249.778 158.688C248.642 158.048 247.402 157.728 246.058 157.728C245.258 157.728 244.658 157.84 244.258 158.064C243.858 158.288 243.658 158.576 243.658 158.928C243.658 159.328 243.874 159.608 244.306 159.768C244.738 159.928 245.426 160.08 246.37 160.224C247.426 160.4 248.29 160.592 248.962 160.8C249.634 160.992 250.218 161.352 250.714 161.88C251.21 162.408 251.458 163.144 251.458 164.088C251.458 164.888 251.218 165.6 250.738 166.224C250.258 166.848 249.554 167.336 248.626 167.688C247.714 168.024 246.626 168.192 245.362 168.192ZM255.208 163.536C255.88 163.536 256.432 163.752 256.864 164.184C257.296 164.6 257.512 165.152 257.512 165.84C257.512 166.16 257.472 166.48 257.392 166.8C257.312 167.12 257.136 167.6 256.864 168.24L255.496 171.696H253.12L254.176 167.88C253.776 167.72 253.456 167.464 253.216 167.112C252.992 166.744 252.88 166.32 252.88 165.84C252.88 165.152 253.096 164.6 253.528 164.184C253.976 163.752 254.536 163.536 255.208 163.536ZM282.518 151.2V168H279.326L270.95 157.8V168H267.11V151.2H270.326L278.678 161.4V151.2H282.518ZM286.229 155.088H289.973V168H286.229V155.088ZM288.101 153.288C287.413 153.288 286.853 153.088 286.421 152.688C285.989 152.288 285.773 151.792 285.773 151.2C285.773 150.608 285.989 150.112 286.421 149.712C286.853 149.312 287.413 149.112 288.101 149.112C288.789 149.112 289.349 149.304 289.781 149.688C290.213 150.072 290.429 150.552 290.429 151.128C290.429 151.752 290.213 152.272 289.781 152.688C289.349 153.088 288.789 153.288 288.101 153.288ZM306.768 155.088V165.84C306.768 168.208 306.152 169.968 304.92 171.12C303.688 172.272 301.888 172.848 299.52 172.848C298.272 172.848 297.088 172.696 295.968 172.392C294.848 172.088 293.92 171.648 293.184 171.072L294.672 168.384C295.216 168.832 295.904 169.184 296.736 169.44C297.568 169.712 298.4 169.848 299.232 169.848C300.528 169.848 301.48 169.552 302.088 168.96C302.712 168.384 303.024 167.504 303.024 166.32V165.768C302.048 166.84 300.688 167.376 298.944 167.376C297.76 167.376 296.672 167.12 295.68 166.608C294.704 166.08 293.928 165.344 293.352 164.4C292.776 163.456 292.488 162.368 292.488 161.136C292.488 159.904 292.776 158.816 293.352 157.872C293.928 156.928 294.704 156.2 295.68 155.688C296.672 155.16 297.76 154.896 298.944 154.896C300.816 154.896 302.24 155.512 303.216 156.744V155.088H306.768ZM299.688 164.304C300.68 164.304 301.488 164.016 302.112 163.44C302.752 162.848 303.072 162.08 303.072 161.136C303.072 160.192 302.752 159.432 302.112 158.856C301.488 158.264 300.68 157.968 299.688 157.968C298.696 157.968 297.88 158.264 297.24 158.856C296.6 159.432 296.28 160.192 296.28 161.136C296.28 162.08 296.6 162.848 297.24 163.44C297.88 164.016 298.696 164.304 299.688 164.304ZM322.901 161.592C322.901 161.64 322.877 161.976 322.829 162.6H313.061C313.237 163.4 313.653 164.032 314.309 164.496C314.965 164.96 315.781 165.192 316.757 165.192C317.429 165.192 318.021 165.096 318.533 164.904C319.061 164.696 319.549 164.376 319.997 163.944L321.989 166.104C320.773 167.496 318.997 168.192 316.661 168.192C315.205 168.192 313.917 167.912 312.797 167.352C311.677 166.776 310.813 165.984 310.205 164.976C309.597 163.968 309.293 162.824 309.293 161.544C309.293 160.28 309.589 159.144 310.181 158.136C310.789 157.112 311.613 156.32 312.653 155.76C313.709 155.184 314.885 154.896 316.181 154.896C317.445 154.896 318.589 155.168 319.613 155.712C320.637 156.256 321.437 157.04 322.013 158.064C322.605 159.072 322.901 160.248 322.901 161.592ZM316.205 157.728C315.357 157.728 314.645 157.968 314.069 158.448C313.493 158.928 313.141 159.584 313.013 160.416H319.373C319.245 159.6 318.893 158.952 318.317 158.472C317.741 157.976 317.037 157.728 316.205 157.728ZM328.969 156.792C329.417 156.168 330.017 155.696 330.769 155.376C331.537 155.056 332.417 154.896 333.409 154.896V158.352C332.993 158.32 332.713 158.304 332.569 158.304C331.497 158.304 330.657 158.608 330.049 159.216C329.441 159.808 329.137 160.704 329.137 161.904V168H325.393V155.088H328.969V156.792ZM335.635 155.088H339.379V168H335.635V155.088ZM337.507 153.288C336.819 153.288 336.259 153.088 335.827 152.688C335.395 152.288 335.179 151.792 335.179 151.2C335.179 150.608 335.395 150.112 335.827 149.712C336.259 149.312 336.819 149.112 337.507 149.112C338.195 149.112 338.755 149.304 339.187 149.688C339.619 150.072 339.835 150.552 339.835 151.128C339.835 151.752 339.619 152.272 339.187 152.688C338.755 153.088 338.195 153.288 337.507 153.288ZM348.062 154.896C350.062 154.896 351.598 155.376 352.67 156.336C353.742 157.28 354.278 158.712 354.278 160.632V168H350.774V166.392C350.07 167.592 348.758 168.192 346.838 168.192C345.846 168.192 344.982 168.024 344.246 167.688C343.526 167.352 342.974 166.888 342.59 166.296C342.206 165.704 342.014 165.032 342.014 164.28C342.014 163.08 342.462 162.136 343.358 161.448C344.27 160.76 345.67 160.416 347.558 160.416H350.534C350.534 159.6 350.286 158.976 349.79 158.544C349.294 158.096 348.55 157.872 347.558 157.872C346.87 157.872 346.19 157.984 345.518 158.208C344.862 158.416 344.302 158.704 343.838 159.072L342.494 156.456C343.198 155.96 344.038 155.576 345.014 155.304C346.006 155.032 347.022 154.896 348.062 154.896ZM347.774 165.672C348.414 165.672 348.982 165.528 349.478 165.24C349.974 164.936 350.326 164.496 350.534 163.92V162.6H347.966C346.43 162.6 345.662 163.104 345.662 164.112C345.662 164.592 345.846 164.976 346.214 165.264C346.598 165.536 347.118 165.672 347.774 165.672Z" fill="white"/>
<rect x="39.9692" y="120" width="49.9615" height="50" rx="10" fill="#C4C4C4" fill-opacity="0.1"/>
<path d="M76.1912 142.5C76.1912 151.25 64.9498 158.75 64.9498 158.75C64.9498 158.75 53.7085 151.25 53.7085 142.5C53.7085 139.516 54.8928 136.655 57.001 134.545C59.1092 132.435 61.9685 131.25 64.9498 131.25C67.9312 131.25 70.7905 132.435 72.8987 134.545C75.0068 136.655 76.1912 139.516 76.1912 142.5Z" stroke="#17C2EC" stroke-width="2" stroke-linecap="round" stroke-linejoin="round"/>
<path d="M64.95 146.25C67.0195 146.25 68.6971 144.571 68.6971 142.5C68.6971 140.429 67.0195 138.75 64.95 138.75C62.8805 138.75 61.2029 140.429 61.2029 142.5C61.2029 144.571 62.8805 146.25 64.95 146.25Z" stroke="#17C2EC" stroke-width="2" stroke-linecap="round" stroke-linejoin="round"/>
<path d="M478.889 122.2H486.233C488.025 122.2 489.617 122.552 491.009 123.256C492.401 123.944 493.481 124.928 494.249 126.208C495.017 127.472 495.401 128.936 495.401 130.6C495.401 132.264 495.017 133.736 494.249 135.016C493.481 136.28 492.401 137.264 491.009 137.968C489.617 138.656 488.025 139 486.233 139H478.889V122.2ZM486.089 136.36C487.321 136.36 488.401 136.128 489.329 135.664C490.273 135.184 490.993 134.512 491.489 133.648C492.001 132.768 492.257 131.752 492.257 130.6C492.257 129.448 492.001 128.44 491.489 127.576C490.993 126.696 490.273 126.024 489.329 125.56C488.401 125.08 487.321 124.84 486.089 124.84H482.009V136.36H486.089ZM503.325 126.04C505.213 126.04 506.653 126.496 507.645 127.408C508.653 128.304 509.157 129.664 509.157 131.488V139H506.325V137.44C505.957 138 505.429 138.432 504.741 138.736C504.069 139.024 503.253 139.168 502.293 139.168C501.333 139.168 500.493 139.008 499.773 138.688C499.053 138.352 498.493 137.896 498.093 137.32C497.709 136.728 497.517 136.064 497.517 135.328C497.517 134.176 497.941 133.256 498.789 132.568C499.653 131.864 501.005 131.512 502.845 131.512H506.157V131.32C506.157 130.424 505.885 129.736 505.341 129.256C504.813 128.776 504.021 128.536 502.965 128.536C502.245 128.536 501.533 128.648 500.829 128.872C500.141 129.096 499.557 129.408 499.077 129.808L497.901 127.624C498.573 127.112 499.381 126.72 500.325 126.448C501.269 126.176 502.269 126.04 503.325 126.04ZM502.917 136.984C503.669 136.984 504.333 136.816 504.909 136.48C505.501 136.128 505.917 135.632 506.157 134.992V133.504H503.061C501.333 133.504 500.469 134.072 500.469 135.208C500.469 135.752 500.685 136.184 501.117 136.504C501.549 136.824 502.149 136.984 502.917 136.984ZM520.711 138.304C520.359 138.592 519.927 138.808 519.415 138.952C518.919 139.096 518.391 139.168 517.831 139.168C516.423 139.168 515.335 138.8 514.567 138.064C513.799 137.328 513.415 136.256 513.415 134.848V128.68H511.303V126.28H513.415V123.352H516.415V126.28H519.847V128.68H516.415V134.776C516.415 135.4 516.567 135.88 516.871 136.216C517.175 136.536 517.615 136.696 518.191 136.696C518.863 136.696 519.423 136.52 519.871 136.168L520.711 138.304ZM534.805 132.664C534.805 132.872 534.789 133.168 534.757 133.552H524.701C524.877 134.496 525.333 135.248 526.069 135.808C526.821 136.352 527.749 136.624 528.853 136.624C530.261 136.624 531.421 136.16 532.333 135.232L533.941 137.08C533.365 137.768 532.637 138.288 531.757 138.64C530.877 138.992 529.885 139.168 528.781 139.168C527.373 139.168 526.133 138.888 525.061 138.328C523.989 137.768 523.157 136.992 522.565 136C521.989 134.992 521.701 133.856 521.701 132.592C521.701 131.344 521.981 130.224 522.541 129.232C523.117 128.224 523.909 127.44 524.917 126.88C525.925 126.32 527.061 126.04 528.325 126.04C529.573 126.04 530.685 126.32 531.661 126.88C532.653 127.424 533.421 128.2 533.965 129.208C534.525 130.2 534.805 131.352 534.805 132.664ZM528.325 128.44C527.365 128.44 526.549 128.728 525.877 129.304C525.221 129.864 524.821 130.616 524.677 131.56H531.949C531.821 130.632 531.429 129.88 530.773 129.304C530.117 128.728 529.301 128.44 528.325 128.44Z" fill="white" fill-opacity="0.5"/>
<path d="M490.121 164.832V168H477.425V165.48L483.905 159.36C484.593 158.704 485.057 158.144 485.297 157.68C485.537 157.2 485.657 156.728 485.657 156.264C485.657 155.592 485.425 155.08 484.961 154.728C484.513 154.36 483.849 154.176 482.969 154.176C482.233 154.176 481.569 154.32 480.977 154.608C480.385 154.88 479.889 155.296 479.489 155.856L476.657 154.032C477.313 153.056 478.217 152.296 479.369 151.752C480.521 151.192 481.841 150.912 483.329 150.912C484.577 150.912 485.665 151.12 486.593 151.536C487.537 151.936 488.265 152.512 488.777 153.264C489.305 154 489.569 154.872 489.569 155.88C489.569 156.792 489.377 157.648 488.993 158.448C488.609 159.248 487.865 160.16 486.761 161.184L482.897 164.832H490.121ZM497.629 150.912C499.981 150.912 501.821 151.632 503.149 153.072C504.477 154.496 505.141 156.552 505.141 159.24C505.141 161.144 504.781 162.776 504.061 164.136C503.357 165.496 502.357 166.528 501.061 167.232C499.765 167.936 498.269 168.288 496.573 168.288C495.677 168.288 494.821 168.192 494.005 168C493.189 167.792 492.493 167.504 491.917 167.136L493.357 164.28C494.173 164.84 495.221 165.12 496.501 165.12C497.925 165.12 499.053 164.704 499.885 163.872C500.717 163.024 501.165 161.808 501.229 160.224C500.221 161.232 498.829 161.736 497.053 161.736C495.981 161.736 495.005 161.52 494.125 161.088C493.245 160.656 492.549 160.048 492.037 159.264C491.525 158.464 491.269 157.544 491.269 156.504C491.269 155.384 491.549 154.4 492.109 153.552C492.669 152.704 493.429 152.056 494.389 151.608C495.365 151.144 496.445 150.912 497.629 150.912ZM497.917 158.832C498.765 158.832 499.453 158.6 499.981 158.136C500.525 157.656 500.797 157.048 500.797 156.312C500.797 155.576 500.533 154.976 500.005 154.512C499.493 154.048 498.781 153.816 497.869 153.816C497.037 153.816 496.357 154.04 495.829 154.488C495.317 154.936 495.061 155.544 495.061 156.312C495.061 157.08 495.317 157.696 495.829 158.16C496.357 158.608 497.053 158.832 497.917 158.832ZM518.747 154.32V158.76H526.523V161.88H518.747V168H514.859V151.2H527.555V154.32H518.747ZM542.243 161.592C542.243 161.64 542.219 161.976 542.171 162.6H532.403C532.579 163.4 532.995 164.032 533.651 164.496C534.307 164.96 535.123 165.192 536.099 165.192C536.771 165.192 537.363 165.096 537.875 164.904C538.403 164.696 538.891 164.376 539.339 163.944L541.331 166.104C540.115 167.496 538.339 168.192 536.003 168.192C534.547 168.192 533.259 167.912 532.139 167.352C531.019 166.776 530.155 165.984 529.547 164.976C528.939 163.968 528.635 162.824 528.635 161.544C528.635 160.28 528.931 159.144 529.523 158.136C530.131 157.112 530.955 156.32 531.995 155.76C533.051 155.184 534.227 154.896 535.523 154.896C536.787 154.896 537.931 155.168 538.955 155.712C539.979 156.256 540.779 157.04 541.355 158.064C541.947 159.072 542.243 160.248 542.243 161.592ZM535.547 157.728C534.699 157.728 533.987 157.968 533.411 158.448C532.835 158.928 532.483 159.584 532.355 160.416H538.715C538.587 159.6 538.235 158.952 537.659 158.472C537.083 157.976 536.379 157.728 535.547 157.728ZM552.368 154.896C553.568 154.896 554.656 155.176 555.632 155.736C556.624 156.28 557.4 157.056 557.96 158.064C558.52 159.056 558.8 160.216 558.8 161.544C558.8 162.872 558.52 164.04 557.96 165.048C557.4 166.04 556.624 166.816 555.632 167.376C554.656 167.92 553.568 168.192 552.368 168.192C550.592 168.192 549.24 167.632 548.312 166.512V168H544.736V150.192H548.48V156.456C549.424 155.416 550.72 154.896 552.368 154.896ZM551.72 165.12C552.68 165.12 553.464 164.8 554.072 164.16C554.696 163.504 555.008 162.632 555.008 161.544C555.008 160.456 554.696 159.592 554.072 158.952C553.464 158.296 552.68 157.968 551.72 157.968C550.76 157.968 549.968 158.296 549.344 158.952C548.736 159.592 548.432 160.456 548.432 161.544C548.432 162.632 548.736 163.504 549.344 164.16C549.968 164.8 550.76 165.12 551.72 165.12ZM564.882 156.792C565.33 156.168 565.93 155.696 566.682 155.376C567.45 155.056 568.33 154.896 569.322 154.896V158.352C568.906 158.32 568.626 158.304 568.482 158.304C567.41 158.304 566.57 158.608 565.962 159.216C565.354 159.808 565.05 160.704 565.05 161.904V168H561.306V155.088H564.882V156.792ZM584.65 155.088V168H581.098V166.464C580.602 167.024 580.01 167.456 579.322 167.76C578.634 168.048 577.89 168.192 577.09 168.192C575.394 168.192 574.05 167.704 573.058 166.728C572.066 165.752 571.57 164.304 571.57 162.384V155.088H575.314V161.832C575.314 163.912 576.186 164.952 577.93 164.952C578.826 164.952 579.546 164.664 580.09 164.088C580.634 163.496 580.906 162.624 580.906 161.472V155.088H584.65ZM593.327 154.896C595.327 154.896 596.863 155.376 597.935 156.336C599.007 157.28 599.543 158.712 599.543 160.632V168H596.039V166.392C595.335 167.592 594.023 168.192 592.103 168.192C591.111 168.192 590.247 168.024 589.511 167.688C588.791 167.352 588.239 166.888 587.855 166.296C587.471 165.704 587.279 165.032 587.279 164.28C587.279 163.08 587.727 162.136 588.623 161.448C589.535 160.76 590.935 160.416 592.823 160.416H595.799C595.799 159.6 595.551 158.976 595.055 158.544C594.559 158.096 593.815 157.872 592.823 157.872C592.135 157.872 591.455 157.984 590.783 158.208C590.127 158.416 589.567 158.704 589.103 159.072L587.759 156.456C588.463 155.96 589.303 155.576 590.279 155.304C591.271 155.032 592.287 154.896 593.327 154.896ZM593.039 165.672C593.679 165.672 594.247 165.528 594.743 165.24C595.239 164.936 595.591 164.496 595.799 163.92V162.6H593.231C591.695 162.6 590.927 163.104 590.927 164.112C590.927 164.592 591.111 164.976 591.479 165.264C591.863 165.536 592.383 165.672 593.039 165.672ZM606.507 156.792C606.955 156.168 607.555 155.696 608.307 155.376C609.075 155.056 609.955 154.896 610.947 154.896V158.352C610.531 158.32 610.251 158.304 610.107 158.304C609.035 158.304 608.195 158.608 607.587 159.216C606.979 159.808 606.675 160.704 606.675 161.904V168H602.931V155.088H606.507V156.792ZM626.435 155.088L620.603 168.792C620.011 170.28 619.275 171.328 618.395 171.936C617.531 172.544 616.483 172.848 615.251 172.848C614.579 172.848 613.915 172.744 613.259 172.536C612.603 172.328 612.067 172.04 611.651 171.672L613.019 169.008C613.307 169.264 613.635 169.464 614.003 169.608C614.387 169.752 614.763 169.824 615.131 169.824C615.643 169.824 616.059 169.696 616.379 169.44C616.699 169.2 616.987 168.792 617.243 168.216L617.291 168.096L611.699 155.088H615.563L619.187 163.848L622.835 155.088H626.435ZM628.629 163.536C629.301 163.536 629.853 163.752 630.285 164.184C630.717 164.6 630.933 165.152 630.933 165.84C630.933 166.16 630.893 166.48 630.813 166.8C630.733 167.12 630.557 167.6 630.285 168.24L628.917 171.696H626.541L627.597 167.88C627.197 167.72 626.877 167.464 626.637 167.112C626.413 166.744 626.301 166.32 626.301 165.84C626.301 165.152 626.517 164.6 626.949 164.184C627.397 163.752 627.957 163.536 628.629 163.536ZM652.027 164.832V168H639.331V165.48L645.811 159.36C646.499 158.704 646.963 158.144 647.203 157.68C647.443 157.2 647.563 156.728 647.563 156.264C647.563 155.592 647.331 155.08 646.867 154.728C646.419 154.36 645.755 154.176 644.875 154.176C644.139 154.176 643.475 154.32 642.883 154.608C642.291 154.88 641.795 155.296 641.395 155.856L638.563 154.032C639.219 153.056 640.123 152.296 641.275 151.752C642.427 151.192 643.747 150.912 645.235 150.912C646.483 150.912 647.571 151.12 648.499 151.536C649.443 151.936 650.171 152.512 650.683 153.264C651.211 154 651.475 154.872 651.475 155.88C651.475 156.792 651.283 157.648 650.899 158.448C650.515 159.248 649.771 160.16 648.667 161.184L644.803 164.832H652.027ZM660.785 168.288C659.393 168.288 658.153 167.944 657.065 167.256C655.977 166.568 655.121 165.576 654.497 164.28C653.889 162.968 653.585 161.408 653.585 159.6C653.585 157.792 653.889 156.24 654.497 154.944C655.121 153.632 655.977 152.632 657.065 151.944C658.153 151.256 659.393 150.912 660.785 150.912C662.177 150.912 663.417 151.256 664.505 151.944C665.593 152.632 666.441 153.632 667.049 154.944C667.673 156.24 667.985 157.792 667.985 159.6C667.985 161.408 667.673 162.968 667.049 164.28C666.441 165.576 665.593 166.568 664.505 167.256C663.417 167.944 662.177 168.288 660.785 168.288ZM660.785 165C661.809 165 662.609 164.56 663.185 163.68C663.777 162.8 664.073 161.44 664.073 159.6C664.073 157.76 663.777 156.4 663.185 155.52C662.609 154.64 661.809 154.2 660.785 154.2C659.777 154.2 658.977 154.64 658.385 155.52C657.809 156.4 657.521 157.76 657.521 159.6C657.521 161.44 657.809 162.8 658.385 163.68C658.977 164.56 659.777 165 660.785 165ZM682.285 164.832V168H669.589V165.48L676.069 159.36C676.757 158.704 677.221 158.144 677.461 157.68C677.701 157.2 677.821 156.728 677.821 156.264C677.821 155.592 677.589 155.08 677.125 154.728C676.677 154.36 676.013 154.176 675.133 154.176C674.397 154.176 673.733 154.32 673.141 154.608C672.549 154.88 672.053 155.296 671.653 155.856L668.821 154.032C669.477 153.056 670.381 152.296 671.533 151.752C672.685 151.192 674.005 150.912 675.493 150.912C676.741 150.912 677.829 151.12 678.757 151.536C679.701 151.936 680.429 152.512 680.941 153.264C681.469 154 681.733 154.872 681.733 155.88C681.733 156.792 681.541 157.648 681.157 158.448C680.773 159.248 680.029 160.16 678.925 161.184L675.061 164.832H682.285ZM696.441 164.832V168H683.745V165.48L690.225 159.36C690.913 158.704 691.377 158.144 691.617 157.68C691.857 157.2 691.977 156.728 691.977 156.264C691.977 155.592 691.745 155.08 691.281 154.728C690.833 154.36 690.169 154.176 689.289 154.176C688.553 154.176 687.889 154.32 687.297 154.608C686.705 154.88 686.209 155.296 685.809 155.856L682.977 154.032C683.633 153.056 684.537 152.296 685.689 151.752C686.841 151.192 688.161 150.912 689.649 150.912C690.897 150.912 691.985 151.12 692.913 151.536C693.857 151.936 694.585 152.512 695.097 153.264C695.625 154 695.889 154.872 695.889 155.88C695.889 156.792 695.697 157.648 695.313 158.448C694.929 159.248 694.185 160.16 693.081 161.184L689.217 164.832H696.441Z" fill="white"/>
<rect x="406.687" y="120" width="49.9615" height="50" rx="10" fill="#C4C4C4" fill-opacity="0.1"/>
<path d="M440.411 135H422.925C421.545 135 420.427 136.119 420.427 137.5V155C420.427 156.381 421.545 157.5 422.925 157.5H440.411C441.791 157.5 442.909 156.381 442.909 155V137.5C442.909 136.119 441.791 135 440.411 135Z" stroke="#17C2EC" stroke-width="2" stroke-linecap="round" stroke-linejoin="round"/>
<path d="M436.664 132.5V137.5" stroke="#17C2EC" stroke-width="2" stroke-linecap="round" stroke-linejoin="round"/>
<path d="M426.672 132.5V137.5" stroke="#17C2EC" stroke-width="2" stroke-linecap="round" stroke-linejoin="round"/>
<path d="M420.427 142.5H442.909" stroke="#17C2EC" stroke-width="2" stroke-linecap="round" stroke-linejoin="round"/>
<path d="M834.987 122.2L827.667 139H824.595L817.251 122.2H820.635L826.227 135.16L831.867 122.2H834.987ZM840.406 126.04C842.294 126.04 843.734 126.496 844.726 127.408C845.734 128.304 846.238 129.664 846.238 131.488V139H843.406V137.44C843.038 138 842.51 138.432 841.822 138.736C841.15 139.024 840.334 139.168 839.374 139.168C838.414 139.168 837.574 139.008 836.854 138.688C836.134 138.352 835.574 137.896 835.174 137.32C834.79 136.728 834.598 136.064 834.598 135.328C834.598 134.176 835.022 133.256 835.87 132.568C836.734 131.864 838.086 131.512 839.926 131.512H843.238V131.32C843.238 130.424 842.966 129.736 842.422 129.256C841.894 128.776 841.102 128.536 840.046 128.536C839.326 128.536 838.614 128.648 837.91 128.872C837.222 129.096 836.638 129.408 836.158 129.808L834.982 127.624C835.654 127.112 836.462 126.72 837.406 126.448C838.35 126.176 839.35 126.04 840.406 126.04ZM839.998 136.984C840.75 136.984 841.414 136.816 841.99 136.48C842.582 136.128 842.998 135.632 843.238 134.992V133.504H840.142C838.414 133.504 837.55 134.072 837.55 135.208C837.55 135.752 837.766 136.184 838.198 136.504C838.63 136.824 839.23 136.984 839.998 136.984ZM856.086 139.168C854.758 139.168 853.566 138.888 852.51 138.328C851.454 137.768 850.63 136.992 850.038 136C849.446 134.992 849.15 133.856 849.15 132.592C849.15 131.328 849.446 130.2 850.038 129.208C850.63 128.216 851.446 127.44 852.486 126.88C853.542 126.32 854.742 126.04 856.086 126.04C857.35 126.04 858.454 126.296 859.398 126.808C860.358 127.32 861.078 128.056 861.558 129.016L859.254 130.36C858.886 129.768 858.422 129.328 857.862 129.04C857.318 128.736 856.718 128.584 856.062 128.584C854.942 128.584 854.014 128.952 853.278 129.688C852.542 130.408 852.174 131.376 852.174 132.592C852.174 133.808 852.534 134.784 853.254 135.52C853.99 136.24 854.926 136.6 856.062 136.6C856.718 136.6 857.318 136.456 857.862 136.168C858.422 135.864 858.886 135.416 859.254 134.824L861.558 136.168C861.062 137.128 860.334 137.872 859.374 138.4C858.43 138.912 857.334 139.168 856.086 139.168ZM869.844 139.168C868.516 139.168 867.324 138.888 866.268 138.328C865.212 137.768 864.388 136.992 863.796 136C863.204 134.992 862.908 133.856 862.908 132.592C862.908 131.328 863.204 130.2 863.796 129.208C864.388 128.216 865.204 127.44 866.244 126.88C867.3 126.32 868.5 126.04 869.844 126.04C871.108 126.04 872.212 126.296 873.156 126.808C874.116 127.32 874.836 128.056 875.316 129.016L873.012 130.36C872.644 129.768 872.18 129.328 871.62 129.04C871.076 128.736 870.476 128.584 869.82 128.584C868.7 128.584 867.772 128.952 867.036 129.688C866.3 130.408 865.932 131.376 865.932 132.592C865.932 133.808 866.292 134.784 867.012 135.52C867.748 136.24 868.684 136.6 869.82 136.6C870.476 136.6 871.076 136.456 871.62 136.168C872.18 135.864 872.644 135.416 873.012 134.824L875.316 136.168C874.82 137.128 874.092 137.872 873.132 138.4C872.188 138.912 871.092 139.168 869.844 139.168ZM877.909 126.184H880.909V139H877.909V126.184ZM879.421 124.072C878.877 124.072 878.421 123.904 878.053 123.568C877.685 123.216 877.501 122.784 877.501 122.272C877.501 121.76 877.685 121.336 878.053 121C878.421 120.648 878.877 120.472 879.421 120.472C879.965 120.472 880.421 120.64 880.789 120.976C881.157 121.296 881.341 121.704 881.341 122.2C881.341 122.728 881.157 123.176 880.789 123.544C880.437 123.896 879.981 124.072 879.421 124.072ZM892.118 126.04C893.734 126.04 895.03 126.512 896.006 127.456C896.982 128.4 897.47 129.8 897.47 131.656V139H894.47V132.04C894.47 130.92 894.206 130.08 893.678 129.52C893.15 128.944 892.398 128.656 891.422 128.656C890.318 128.656 889.446 128.992 888.806 129.664C888.166 130.32 887.846 131.272 887.846 132.52V139H884.846V126.184H887.702V127.84C888.198 127.248 888.822 126.8 889.574 126.496C890.326 126.192 891.174 126.04 892.118 126.04ZM913.441 132.664C913.441 132.872 913.425 133.168 913.393 133.552H903.337C903.513 134.496 903.969 135.248 904.705 135.808C905.457 136.352 906.385 136.624 907.489 136.624C908.897 136.624 910.057 136.16 910.969 135.232L912.577 137.08C912.001 137.768 911.273 138.288 910.393 138.64C909.513 138.992 908.521 139.168 907.417 139.168C906.009 139.168 904.769 138.888 903.697 138.328C902.625 137.768 901.793 136.992 901.201 136C900.625 134.992 900.337 133.856 900.337 132.592C900.337 131.344 900.617 130.224 901.177 129.232C901.753 128.224 902.545 127.44 903.553 126.88C904.561 126.32 905.697 126.04 906.961 126.04C908.209 126.04 909.321 126.32 910.297 126.88C911.289 127.424 912.057 128.2 912.601 129.208C913.161 130.2 913.441 131.352 913.441 132.664ZM906.961 128.44C906.001 128.44 905.185 128.728 904.513 129.304C903.857 129.864 903.457 130.616 903.313 131.56H910.585C910.457 130.632 910.065 129.88 909.409 129.304C908.753 128.728 907.937 128.44 906.961 128.44ZM926.652 124.84H921.084V122.2H935.34V124.84H929.772V139H926.652V124.84ZM948.596 126.184L942.596 140.032C942.036 141.424 941.356 142.4 940.556 142.96C939.756 143.536 938.788 143.824 937.652 143.824C937.012 143.824 936.38 143.72 935.756 143.512C935.132 143.304 934.62 143.016 934.22 142.648L935.42 140.44C935.708 140.712 936.044 140.928 936.428 141.088C936.828 141.248 937.228 141.328 937.628 141.328C938.156 141.328 938.588 141.192 938.924 140.92C939.276 140.648 939.596 140.192 939.884 139.552L940.1 139.048L934.508 126.184H937.628L941.66 135.664L945.716 126.184H948.596ZM957.575 126.04C958.823 126.04 959.935 126.312 960.911 126.856C961.903 127.4 962.679 128.168 963.239 129.16C963.799 130.152 964.079 131.296 964.079 132.592C964.079 133.888 963.799 135.04 963.239 136.048C962.679 137.04 961.903 137.808 960.911 138.352C959.935 138.896 958.823 139.168 957.575 139.168C955.847 139.168 954.479 138.592 953.471 137.44V143.656H950.471V126.184H953.327V127.864C953.823 127.256 954.431 126.8 955.151 126.496C955.887 126.192 956.695 126.04 957.575 126.04ZM957.239 136.6C958.343 136.6 959.247 136.232 959.951 135.496C960.671 134.76 961.031 133.792 961.031 132.592C961.031 131.392 960.671 130.424 959.951 129.688C959.247 128.952 958.343 128.584 957.239 128.584C956.519 128.584 955.871 128.752 955.295 129.088C954.719 129.408 954.263 129.872 953.927 130.48C953.591 131.088 953.423 131.792 953.423 132.592C953.423 133.392 953.591 134.096 953.927 134.704C954.263 135.312 954.719 135.784 955.295 136.12C955.871 136.44 956.519 136.6 957.239 136.6ZM978.973 132.664C978.973 132.872 978.957 133.168 978.925 133.552H968.869C969.045 134.496 969.501 135.248 970.237 135.808C970.989 136.352 971.917 136.624 973.021 136.624C974.429 136.624 975.589 136.16 976.501 135.232L978.109 137.08C977.533 137.768 976.805 138.288 975.925 138.64C975.045 138.992 974.053 139.168 972.949 139.168C971.541 139.168 970.301 138.888 969.229 138.328C968.157 137.768 967.325 136.992 966.733 136C966.157 134.992 965.869 133.856 965.869 132.592C965.869 131.344 966.149 130.224 966.709 129.232C967.285 128.224 968.077 127.44 969.085 126.88C970.093 126.32 971.229 126.04 972.493 126.04C973.741 126.04 974.853 126.32 975.829 126.88C976.821 127.424 977.589 128.2 978.133 129.208C978.693 130.2 978.973 131.352 978.973 132.664ZM972.493 128.44C971.533 128.44 970.717 128.728 970.045 129.304C969.389 129.864 968.989 130.616 968.845 131.56H976.117C975.989 130.632 975.597 129.88 974.941 129.304C974.285 128.728 973.469 128.44 972.493 128.44Z" fill="white" fill-opacity="0.5"/>
<path d="M834.28 168L834.256 157.92L829.312 166.224H827.56L822.64 158.136V168H818.992V151.2H822.208L828.496 161.64L834.688 151.2H837.88L837.928 168H834.28ZM847.794 168.192C846.434 168.192 845.21 167.912 844.122 167.352C843.05 166.776 842.21 165.984 841.602 164.976C840.994 163.968 840.69 162.824 840.69 161.544C840.69 160.264 840.994 159.12 841.602 158.112C842.21 157.104 843.05 156.32 844.122 155.76C845.21 155.184 846.434 154.896 847.794 154.896C849.154 154.896 850.37 155.184 851.442 155.76C852.514 156.32 853.354 157.104 853.962 158.112C854.57 159.12 854.874 160.264 854.874 161.544C854.874 162.824 854.57 163.968 853.962 164.976C853.354 165.984 852.514 166.776 851.442 167.352C850.37 167.912 849.154 168.192 847.794 168.192ZM847.794 165.12C848.754 165.12 849.538 164.8 850.146 164.16C850.77 163.504 851.082 162.632 851.082 161.544C851.082 160.456 850.77 159.592 850.146 158.952C849.538 158.296 848.754 157.968 847.794 157.968C846.834 157.968 846.042 158.296 845.418 158.952C844.794 159.592 844.482 160.456 844.482 161.544C844.482 162.632 844.794 163.504 845.418 164.16C846.042 164.8 846.834 165.12 847.794 165.12ZM860.952 156.792C861.4 156.168 862 155.696 862.752 155.376C863.52 155.056 864.4 154.896 865.392 154.896V158.352C864.976 158.32 864.696 158.304 864.552 158.304C863.48 158.304 862.64 158.608 862.032 159.216C861.424 159.808 861.12 160.704 861.12 161.904V168H857.376V155.088H860.952V156.792ZM880.653 150.192V168H877.077V166.512C876.149 167.632 874.805 168.192 873.045 168.192C871.829 168.192 870.725 167.92 869.733 167.376C868.757 166.832 867.989 166.056 867.429 165.048C866.869 164.04 866.589 162.872 866.589 161.544C866.589 160.216 866.869 159.048 867.429 158.04C867.989 157.032 868.757 156.256 869.733 155.712C870.725 155.168 871.829 154.896 873.045 154.896C874.693 154.896 875.981 155.416 876.909 156.456V150.192H880.653ZM873.693 165.12C874.637 165.12 875.421 164.8 876.045 164.16C876.669 163.504 876.981 162.632 876.981 161.544C876.981 160.456 876.669 159.592 876.045 158.952C875.421 158.296 874.637 157.968 873.693 157.968C872.733 157.968 871.941 158.296 871.317 158.952C870.693 159.592 870.381 160.456 870.381 161.544C870.381 162.632 870.693 163.504 871.317 164.16C871.941 164.8 872.733 165.12 873.693 165.12ZM896.767 161.592C896.767 161.64 896.743 161.976 896.695 162.6H886.927C887.103 163.4 887.519 164.032 888.175 164.496C888.831 164.96 889.647 165.192 890.623 165.192C891.295 165.192 891.887 165.096 892.399 164.904C892.927 164.696 893.415 164.376 893.863 163.944L895.855 166.104C894.639 167.496 892.863 168.192 890.527 168.192C889.071 168.192 887.783 167.912 886.663 167.352C885.543 166.776 884.679 165.984 884.071 164.976C883.463 163.968 883.159 162.824 883.159 161.544C883.159 160.28 883.455 159.144 884.047 158.136C884.655 157.112 885.479 156.32 886.519 155.76C887.575 155.184 888.751 154.896 890.047 154.896C891.311 154.896 892.455 155.168 893.479 155.712C894.503 156.256 895.303 157.04 895.879 158.064C896.471 159.072 896.767 160.248 896.767 161.592ZM890.071 157.728C889.223 157.728 888.511 157.968 887.935 158.448C887.359 158.928 887.007 159.584 886.879 160.416H893.239C893.111 159.6 892.759 158.952 892.183 158.472C891.607 157.976 890.903 157.728 890.071 157.728ZM907.107 154.896C908.707 154.896 909.995 155.376 910.971 156.336C911.963 157.296 912.459 158.72 912.459 160.608V168H908.715V161.184C908.715 160.16 908.491 159.4 908.043 158.904C907.595 158.392 906.947 158.136 906.099 158.136C905.155 158.136 904.403 158.432 903.843 159.024C903.283 159.6 903.003 160.464 903.003 161.616V168H899.259V155.088H902.835V156.6C903.331 156.056 903.947 155.64 904.683 155.352C905.419 155.048 906.227 154.896 907.107 154.896ZM921.061 154.896C923.061 154.896 924.597 155.376 925.669 156.336C926.741 157.28 927.277 158.712 927.277 160.632V168H923.773V166.392C923.069 167.592 921.757 168.192 919.837 168.192C918.845 168.192 917.981 168.024 917.245 167.688C916.525 167.352 915.973 166.888 915.589 166.296C915.205 165.704 915.013 165.032 915.013 164.28C915.013 163.08 915.461 162.136 916.357 161.448C917.269 160.76 918.669 160.416 920.557 160.416H923.533C923.533 159.6 923.285 158.976 922.789 158.544C922.293 158.096 921.549 157.872 920.557 157.872C919.869 157.872 919.189 157.984 918.517 158.208C917.861 158.416 917.301 158.704 916.837 159.072L915.493 156.456C916.197 155.96 917.037 155.576 918.013 155.304C919.005 155.032 920.021 154.896 921.061 154.896ZM920.773 165.672C921.413 165.672 921.981 165.528 922.477 165.24C922.973 164.936 923.325 164.496 923.533 163.92V162.6H920.965C919.429 162.6 918.661 163.104 918.661 164.112C918.661 164.592 918.845 164.976 919.213 165.264C919.597 165.536 920.117 165.672 920.773 165.672Z" fill="white"/>
<rect x="747.425" y="120" width="49.9615" height="50" rx="10" fill="#C4C4C4" fill-opacity="0.1"/>
<path d="M772.405 157.5C772.405 157.5 782.397 152.5 782.397 145V136.25L772.405 132.5L762.413 136.25V145C762.413 152.5 772.405 157.5 772.405 157.5Z" stroke="#17C2EC" stroke-width="2" stroke-linecap="round" stroke-linejoin="round"/>
<rect x="1117.14" y="110" width="142" height="69" rx="20" fill="#17C2EC"/>
<path d="M1149.65 153.288C1148.32 153.288 1147.04 153.112 1145.79 152.76C1144.56 152.392 1143.56 151.92 1142.81 151.344L1144.13 148.416C1144.85 148.944 1145.71 149.368 1146.7 149.688C1147.69 150.008 1148.68 150.168 1149.68 150.168C1150.78 150.168 1151.6 150.008 1152.12 149.688C1152.65 149.352 1152.92 148.912 1152.92 148.368C1152.92 147.968 1152.76 147.64 1152.44 147.384C1152.13 147.112 1151.73 146.896 1151.24 146.736C1150.76 146.576 1150.1 146.4 1149.27 146.208C1147.99 145.904 1146.94 145.6 1146.12 145.296C1145.31 144.992 1144.6 144.504 1144.01 143.832C1143.44 143.16 1143.15 142.264 1143.15 141.144C1143.15 140.168 1143.41 139.288 1143.94 138.504C1144.47 137.704 1145.26 137.072 1146.32 136.608C1147.39 136.144 1148.69 135.912 1150.23 135.912C1151.3 135.912 1152.35 136.04 1153.37 136.296C1154.4 136.552 1155.29 136.92 1156.06 137.4L1154.86 140.352C1153.31 139.472 1151.76 139.032 1150.2 139.032C1149.12 139.032 1148.31 139.208 1147.78 139.56C1147.27 139.912 1147.01 140.376 1147.01 140.952C1147.01 141.528 1147.31 141.96 1147.9 142.248C1148.51 142.52 1149.43 142.792 1150.66 143.064C1151.94 143.368 1152.99 143.672 1153.8 143.976C1154.62 144.28 1155.32 144.76 1155.89 145.416C1156.48 146.072 1156.78 146.96 1156.78 148.08C1156.78 149.04 1156.51 149.92 1155.96 150.72C1155.44 151.504 1154.64 152.128 1153.56 152.592C1152.49 153.056 1151.19 153.288 1149.65 153.288ZM1172.18 140.088V153H1168.63V151.464C1168.13 152.024 1167.54 152.456 1166.85 152.76C1166.16 153.048 1165.42 153.192 1164.62 153.192C1162.92 153.192 1161.58 152.704 1160.59 151.728C1159.6 150.752 1159.1 149.304 1159.1 147.384V140.088H1162.84V146.832C1162.84 148.912 1163.72 149.952 1165.46 149.952C1166.36 149.952 1167.08 149.664 1167.62 149.088C1168.16 148.496 1168.44 147.624 1168.44 146.472V140.088H1172.18ZM1183.28 139.896C1184.48 139.896 1185.57 140.176 1186.55 140.736C1187.54 141.28 1188.31 142.056 1188.87 143.064C1189.43 144.056 1189.71 145.216 1189.71 146.544C1189.71 147.872 1189.43 149.04 1188.87 150.048C1188.31 151.04 1187.54 151.816 1186.55 152.376C1185.57 152.92 1184.48 153.192 1183.28 153.192C1181.51 153.192 1180.15 152.632 1179.23 151.512V153H1175.65V135.192H1179.39V141.456C1180.34 140.416 1181.63 139.896 1183.28 139.896ZM1182.63 150.12C1183.59 150.12 1184.38 149.8 1184.99 149.16C1185.61 148.504 1185.92 147.632 1185.92 146.544C1185.92 145.456 1185.61 144.592 1184.99 143.952C1184.38 143.296 1183.59 142.968 1182.63 142.968C1181.67 142.968 1180.88 143.296 1180.26 143.952C1179.65 144.592 1179.35 145.456 1179.35 146.544C1179.35 147.632 1179.65 148.504 1180.26 149.16C1180.88 149.8 1181.67 150.12 1182.63 150.12ZM1208.76 139.896C1210.37 139.896 1211.65 140.376 1212.6 141.336C1213.56 142.28 1214.04 143.704 1214.04 145.608V153H1210.29V146.184C1210.29 145.16 1210.08 144.4 1209.64 143.904C1209.23 143.392 1208.63 143.136 1207.84 143.136C1206.96 143.136 1206.27 143.424 1205.76 144C1205.24 144.56 1204.99 145.4 1204.99 146.52V153H1201.24V146.184C1201.24 144.152 1200.43 143.136 1198.8 143.136C1197.93 143.136 1197.24 143.424 1196.73 144C1196.22 144.56 1195.96 145.4 1195.96 146.52V153H1192.22V140.088H1195.8V141.576C1196.28 141.032 1196.86 140.616 1197.55 140.328C1198.25 140.04 1199.02 139.896 1199.85 139.896C1200.76 139.896 1201.59 140.08 1202.32 140.448C1203.06 140.8 1203.65 141.32 1204.1 142.008C1204.63 141.336 1205.29 140.816 1206.09 140.448C1206.91 140.08 1207.8 139.896 1208.76 139.896ZM1217.39 140.088H1221.14V153H1217.39V140.088ZM1219.26 138.288C1218.58 138.288 1218.02 138.088 1217.58 137.688C1217.15 137.288 1216.94 136.792 1216.94 136.2C1216.94 135.608 1217.15 135.112 1217.58 134.712C1218.02 134.312 1218.58 134.112 1219.26 134.112C1219.95 134.112 1220.51 134.304 1220.94 134.688C1221.38 135.072 1221.59 135.552 1221.59 136.128C1221.59 136.752 1221.38 137.272 1220.94 137.688C1220.51 138.088 1219.95 138.288 1219.26 138.288ZM1232.94 152.376C1232.57 152.648 1232.11 152.856 1231.57 153C1231.04 153.128 1230.48 153.192 1229.89 153.192C1228.35 153.192 1227.16 152.8 1226.31 152.016C1225.48 151.232 1225.07 150.08 1225.07 148.56V143.256H1223.07V140.376H1225.07V137.232H1228.81V140.376H1232.03V143.256H1228.81V148.512C1228.81 149.056 1228.95 149.48 1229.22 149.784C1229.51 150.072 1229.91 150.216 1230.42 150.216C1231.01 150.216 1231.51 150.056 1231.93 149.736L1232.94 152.376Z" fill="white"/>
</svg>
